<?xml version="1.0" encoding="utf-8"?><!DOCTYPE svg PUBLIC "-//W3C//DTD SVG 1.1//EN" "http://www.w3.org/Graphics/SVG/1.1/DTD/svg11.dtd"><svg width="200" height="160" viewBox="0 0 200 160" xmlns="http://www.w3.org/2000/svg" xmlns:xlink="http://www.w3.org/1999/xlink"><view id="000001" viewBox="40 0 40 40"/><svg id="aEbene_1" viewBox="0 0 40 40" width="40" height="40" x="40" xmlns="http://www.w3.org/2000/svg"><style>.ast0{fill:#171513}.ast1{fill:#fff}.ast2{fill:#0c9f3d}</style><g id="a_96-Logo"><path class="ast0" d="M5 11.3c.1-.1.1-.2.2-.3l-.1.1c0 .1 0 .2-.1.2zm25.8-4.9h8.8l-4.2 5.7c1.2 2.4 1.9 5.1 1.9 7.8 0 9.5-7.7 17.3-17.3 17.3-3.9 0-7.7-1.3-10.8-3.8H.4l4.2-5.7C2 22.5 2.2 16.4 5 11.3c0-.1.1-.1.1-.2l.1-.1c3-5 8.5-8.4 14.8-8.4 3.9 0 7.7 1.4 10.8 3.8z"/><path class="ast1" d="M4 19.9c0-2.7.7-5.4 2-7.8 0-.1.1-.2.2-.3.1-.1.1-.2.2-.3C9.2 6.9 14.3 3.8 20 3.8c3.8 0 7.4 1.3 10.3 3.8h6.9L34 12c1.4 2.4 2.1 5.1 2.1 7.9C36.1 28.8 28.9 36 20 36c-3.8 0-7.4-1.3-10.3-3.8H2.8L6 27.8c-1.3-2.4-2-5.1-2-7.9z"/><path class="ast0" d="M29.1 23.9c0-1.3-1.1-2.4-2.4-2.4s-2.4 1.1-2.4 2.4c0 1.3 1.1 2.4 2.4 2.4 1.3-.1 2.4-1.1 2.4-2.4zm3.8 3.5c-2 3.4-6.4 4.5-9.8 2.5-3.4-2-4.7-6.8-1.7-10.9.3-.4 7.6-10.2 7.6-10.2h5.9l-6 8.2c3.8 1.2 5.9 5.2 4.7 9-.2.5-.5 1-.7 1.4z"/><path class="ast2" d="M33.2 13c1.1 2.1 1.7 4.5 1.7 6.9 0 .7 0 1.3-.1 2-.5-2.2-1.9-4.1-3.9-5.2-.1 0-.2-.1-.2-.1l2.5-3.6zM6.8 26.7c-1.1-2.1-1.7-4.5-1.7-6.8 0-.6 0-1.2.1-1.9.5 2.2 1.9 4 3.8 5.1.1 0 .2.1.2.1l-2.4 3.5z"/><path class="ast0" d="M11 15.9c0 1.3 1.1 2.4 2.4 2.4s2.4-1.1 2.4-2.4-1.1-2.4-2.4-2.4c-1.4.1-2.4 1.1-2.4 2.4zm-3.8-3.5c2-3.4 6.4-4.5 9.8-2.5 3.4 2 4.7 6.8 1.7 10.9-.3.4-7.6 10.2-7.6 10.2h-6l6.1-8.2c-3.8-1.2-5.9-5.2-4.7-9 .2-.5.4-1 .7-1.4z"/><path class="ast2" d="M20 5c3 0 5.9.9 8.4 2.6-.1.1-2.4 3.3-4.5 6-.8 1-1.7 2.3-2.4 3.2.4-3.1-1.1-6.4-3.9-8-1.9-1.1-4.2-1.5-6.4-.9C13.7 6 16.8 5 20 5zM20 34.8c-3 0-5.9-.9-8.4-2.6.1-.1 2.4-3.3 4.5-6 .8-1 1.7-2.3 2.4-3.3-.4 3.1 1.1 6.4 3.9 8.1 1.9 1.1 4.2 1.5 6.4.9-2.5 1.8-5.6 2.9-8.8 2.9z"/></g></svg><view id="000002" viewBox="120 0 40 40"/><svg id="bEbene_1" viewBox="0 0 40 40" width="40" height="40" x="120" xmlns="http://www.w3.org/2000/svg"><style>.bst0{fill:#fff}.bst1{fill:#0b5da5}</style><path class="bst0" d="M36.2 23.9l-.3-.4c-2.8-3.1-4.1-6.1-3.9-9 .3-3.7 3-5.9 3-6l.4-.3-2.1-5.1-.6.4s-1.9 1.1-4.4 1.1c-2.7 0-5.3-1.2-7.6-3.5l-.5-.5-.5.5c-2.3 2.3-4.8 3.5-7.6 3.5-2.6 0-4.4-1.1-4.4-1.1l-.6-.4-1.9 4.7-.2.4.4.3s2.8 2.3 3 6c.2 2.9-1.2 6-4.1 9.1l-.2.2v.2c0 .1 1 7.6 7.9 9.4 6 1.6 7.6 4.3 7.6 4.3l.6 1 .6-1s1.6-2.8 7.6-4.4c3.5-.9 5.5-3.4 6.5-5.3 1-1.8 1.4-3.9 1.3-4.1z"/><path class="bst1" d="M20.2 39.3l-.8-1.4s-.4-.7-1.5-1.5c-1-.8-2.9-1.9-5.9-2.7-1.6-.4-3-1.2-4.2-2.3-1-.9-1.8-2-2.4-3.2-1-2-1.3-3.8-1.4-4.2v-.3l.3-.3c2.9-3.1 4.2-6.1 4-8.9-.4-3.5-3-5.7-3.1-5.8l-.5-.4.3-.6 2-4.9.9.6c.1 0 1.9 1 4.3 1 2.6 0 5.1-1.1 7.4-3.4l.6-.6.6.6c2.2 2.3 4.7 3.4 7.4 3.4 2.5 0 4.3-1.1 4.3-1.1l.9-.5 2.2 5.6-.5.4c-.1 0-2.7 2.2-2.9 5.8-.2 2.8 1.1 5.8 3.9 8.8l.4.4v.1c0 .4-.4 2.5-1.4 4.4-1 1.9-3 4.4-6.6 5.4-1.7.4-4 1.3-5.9 2.7-1.1.8-1.5 1.5-1.5 1.5l-.9 1.4zM4.4 24c.1.4 1.1 7.5 7.7 9.2 6 1.6 7.7 4.3 7.7 4.5l.3.6.3-.6s1.7-2.9 7.8-4.5c3.4-.9 5.3-3.3 6.3-5.1 1-1.8 1.4-3.8 1.4-4.1l-.3-.3c-2.9-3.1-4.2-6.2-4-9.2.3-3.7 3-6 3.1-6.1l.3-.2-1.9-4.7-.4.2c-.1 0-2 1.2-4.6 1.2-2.8 0-5.4-1.2-7.7-3.5l-.3-.3-.3.3c-2.3 2.4-4.9 3.5-7.7 3.5-2.5 0-4.4-1-4.6-1.1l-.3-.3-1.8 4.4-.1.3.2.2s2.8 2.3 3.1 6.1c.2 3-1.2 6.1-4.2 9.3v.2z"/><path class="bst1" d="M28 17.1l-1.1-.9c-.1-.1-.2-.2-.2-.3 0-.1 0-.1.1-.2.2-.2.4-.1.5 0l1.1.9.2-.3-1.2-1c-.4-.3-.6-.1-.8.1-.1.1-.2.3-.1.5-.2-.1-.4.1-.5.2-.2.2-.2.4-.1.6l-.2-.2-.2.3.3.3 1.3 1.1.2-.3-1-.9c-.1-.1-.1-.2-.2-.3 0-.1 0-.2.1-.3.2-.2.4-.1.5 0l1.1.9.2-.2zm-3.5.1l.2-.3-.3-.2-.1.3.2.2zm.7.1l-.2.3 1.6 1.3.2-.3-1.6-1.3zm.3 1.3l-.1-.1c-.5-.4-.9-.5-1.2-.1-.5.5-.1.9.3 1.3.7.6 1 .4 1.3.1.3-.3.3-.7 0-1l-.2.3c.2.1.2.4.1.5-.2.2-.4.2-.8-.1l.6-.9zm-.9.8c-.4-.4-.4-.6-.3-.7.2-.2.3-.3.8.1l-.5.6zm.4 1.3l-1.1-.9c-.4-.3-.6-.3-.8 0-.2.2-.2.4-.1.6l-1-.7-.2.3 2.3 1.9.2-.3-.9-.8c-.3-.2-.4-.5-.2-.7.2-.2.4-.2.6 0l1.1.9.1-.3zm-1.3 1.5l-1.1-.9c-.3-.3-.6-.3-.9 0-.2.2-.2.4-.1.6l-.2-.2-.2.3.3.3 1.3 1.1.2-.4-.9-.8c-.2-.2-.4-.4-.2-.7.2-.2.4-.2.5 0l1.1.9.2-.2zm-1.9.9l-.2-.1c-.5-.4-.9-.5-1.2-.1-.5.5-.1.9.3 1.3.7.6 1 .4 1.3.1.3-.3.3-.7 0-1l-.2.3c.2.1.2.4.1.5-.2.2-.4.2-.8-.1l.7-.9zm-1 .7c-.4-.4-.4-.6-.3-.7.2-.2.3-.3.8.1l-.5.6zm-1.7.7l.2.2.2-.2 1.4 1.2.2-.3-1.4-1.2.3-.3-.2-.2-.3.3-.3-.2c-.1-.1-.2-.3 0-.5l-.2-.2-.1.1c-.2.2-.3.5 0 .8l.3.3-.1.2zm-.7.9l.2.2.2-.2 1.4 1.2.2-.3L19 25l.3-.3-.2-.2-.3.3-.3-.2c-.1-.1-.2-.3 0-.5l-.1-.1-.1.1c-.2.2-.3.5 0 .8l.3.3-.2.2zm.9 2.1c.3-.3.4-.7-.3-1.3-.5-.4-.9-.7-1.4-.1-.5.5-.1.9.3 1.3.8.6 1.1.5 1.4.1m-.2-.2c-.2.3-.5.2-1-.3-.4-.4-.4-.6-.2-.8s.4-.3.8.1c.5.6.6.8.4 1m-1.5 2.2l-1-.9.7-.8 1 .9.2-.3-2.3-1.9-.2.3 1 .8-.7.8-1-.8-.2.3 2.3 1.9.2-.3zM23.2 12.1c-.2-.2-.4-.2-.6 0-.2.2-.1.5.1.6.1.1.4.3.6 0 .2-.2.1-.5-.1-.6zM21.1 16.4c-.2-.1-.4-.1-.6 0-.2.2-.1.4.1.6.2.2.5.1.6 0 .1-.2.2-.4-.1-.6zM21.7 13.9c-.2-.2-.4-.2-.6 0-.2.2-.1.5.1.6.1.1.4.3.6 0 .2-.2.1-.5-.1-.6zM19.6 15.6c-.1.2-.1.4 0 .5.1.1.4.1.5 0 .1-.2.1-.4 0-.5s-.4-.1-.5 0z"/><g><path class="bst1" d="M32.9 4.2l-.2.1c-.6.3-2.3 1.1-4.5 1.1-2.8 0-5.5-1.2-7.8-3.5l-.2-.2-.2.2c-2.4 2.3-5 3.5-7.8 3.5-2.2 0-3.9-.7-4.5-1.1l-.3-.1L5.9 8l.1.1c.7.6 2.9 2.9 3.1 6.3.2 3.2-1.2 6.4-4.1 9.6l-.1.1v.1c.2 1 1.2 5.7 5.4 7.8l23-27.1-.4-.7zM14 26.2l-1.9-1.6-.6.7-.4-.3 1.5-1.8.4.3-.6.7 1.9 1.6-.3.4zm1.9-2.2c-.7.9-1.3.4-1.5.2l.4-.5c.1.1.4.4.8-.1.2-.3.2-.5 0-.7-.2-.2-.4-.1-.7.2-.6.4-1 .6-1.4.3-.4-.3-.5-.9.1-1.5.2-.2.5-.5.8-.5.3 0 .5.2.5.2l-.4.5c-.1-.1-.4-.3-.7.1-.2.2-.2.5 0 .6.2.2.4 0 .7-.2.4-.3.9-.6 1.3-.2.5.4.6 1 .1 1.6zm2-2.4c-.4.5-.8.7-1.1.7-.5 0-.9-.2-1.1-.4-.8-.7-.8-1.5-.2-2.2.2-.3.6-.5.9-.5.3 0 .5.1.6.2l-.4.5c-.1-.1-.2-.1-.3-.1-.2 0-.4.1-.5.2-.5.6 0 1.1.3 1.4.2.1.4.3.8.3.2 0 .4-.1.6-.4.2-.2.2-.3.3-.4l-.5-.4-.3.4-.4-.3.8-.9 1.1.9c-.1.2-.2.5-.6 1zm2.3-2.8l-1.7-1.4c0 .3-.1.5-.2.7l-.4-.4c.1-.3.1-.6.2-.9l.3-.4 2.2 1.8-.4.6zm1.3-1.5c-.4.4-.9.5-1.3.2-.1-.1-.2-.3-.2-.5 0-.1 0-.3.1-.4-.1.1-.5.3-.8 0-.3-.2-.4-.7 0-1.3.4-.4.9-.5 1.2-.2.3.2.3.6.1.8.1-.1.3-.2.5-.2s.3.1.4.2c.4.4.4 1 0 1.4zm1.5-1.7c-.1.1-.6.7-1.1.2l.4-.5c.1.1.3.1.4 0 .3-.3 0-.6-.4-.9 0 .2-.1.4-.2.5-.5.5-1 .3-1.3.1-.4-.3-.5-.9-.1-1.4.6-.8 1.4-.2 1.7.1 1 .8 1 1.3.6 1.9zm1.5-1.8c-.1.1-.6.7-1.1.2l.4-.5c.1.1.3.1.4 0 .3-.3 0-.6-.4-.9 0 .2-.1.4-.2.5-.5.5-1 .3-1.3.1-.4-.3-.5-.9-.1-1.4.6-.8 1.4-.2 1.7.1 1 .8 1 1.3.6 1.9z"/></g></svg><view id="000003" viewBox="0 40 40 40"/><svg id="cEbene_1" viewBox="0 0 40 40" width="40" height="40" y="40" xmlns="http://www.w3.org/2000/svg"><style>.cst0{fill:#fff}.cst1{fill:#67b033}</style><path class="cst0" d="M38.9 20c0 10.4-8.4 18.8-18.8 18.8S1.3 30.4 1.3 20 9.7 1.2 20.1 1.2 38.9 8.7 38.9 20z"/><path class="cst0" d="M20.1 38.8c-2.5 0-5-.5-7.3-1.5-2.2-.9-4.2-2.3-6-4-1.7-1.7-3.1-3.7-4-6-1-2.3-1.5-4.8-1.5-7.3C1.3 9.6 9.7 1.2 20.1 1.2c5.1 0 9.8 1.8 13.3 5.2 1.7 1.7 3.1 3.7 4 6 1 2.4 1.5 5 1.5 7.7 0 2.5-.5 5-1.5 7.3-.9 2.2-2.3 4.2-4 6-1.7 1.7-3.7 3.1-6 4-2.3.9-4.8 1.4-7.3 1.4zm0-37.6C9.8 1.2 1.4 9.7 1.4 20c0 2.5.5 5 1.5 7.3.9 2.2 2.3 4.2 4 6 1.7 1.7 3.7 3.1 6 4 2.3 1 4.8 1.5 7.3 1.5s5-.5 7.3-1.5c2.2-.9 4.2-2.3 6-4 1.7-1.7 3.1-3.7 4-6 1-2.3 1.5-4.8 1.5-7.3 0-2.8-.5-5.3-1.5-7.7-.9-2.3-2.3-4.3-4-5.9-3.6-3.3-8.3-5.2-13.4-5.2z"/><path class="cst1" d="M1.7 20C2 8.6 9.9 3.9 15.1 2.3c2.4-.7 4.4-.8 4.4-.5 0 .2-1.8 0-4.3.9C10.8 4.3 4.7 8.2 4.3 18.3 4.3 27.5 11.8 35 21 35s16.7-7.5 16.7-16.7c0-2-.3-3.5-.8-4.9-.8-2.4-1.8-3.5-1.4-3.5.3 0 1.2 1.9 1.8 3.6.7 2 1.1 3.9 1.1 6.5 0 10.2-8.2 18.4-18.4 18.4S1.7 30.2 1.7 20z"/><path class="cst1" d="M18.3 14.2c0-3.3 5.4-3 5.4-3v11.7c0 .8.5 1.3 1.4 1.3 1.5 0 1.4-1.3 1.4-1.3v-12C26.5 8 31.8 8 31.8 8v16.5c-.5 2.9-3 5.2-6 5.2-2 0-3.7-1-4.8-2.5-1.1 1.5-2.9 2.5-4.8 2.5-3 0-5.5-2.2-6-5.2l-.1-1V10.9C10.1 8 15.4 8 15.4 8v14.9c0 .8.6 1.3 1.4 1.3.8 0 1.5-.5 1.5-1.3v-8.7z"/></svg><view id="000004" viewBox="40 40 40 40"/><svg id="dEbene_1" viewBox="0 0 40 40" width="40" height="40" x="40" y="40" xmlns="http://www.w3.org/2000/svg"><style>.dst0{fill:#fff}.dst1{fill:#1d1d1b}</style><path class="dst0" d="M20.2.3L7.7 20.2 20.2 40l12.4-19.8z"/><path class="dst1" d="M20.2 1.6L8.5 20.2l11.7 18.5 11.6-18.5z"/><path class="dst0" d="M20.2 4.6l-9.8 15.6 9.8 15.5 9.7-15.5z"/><path class="dst1" d="M20.2 5.9l-8.9 14.3 8.9 14.2 8.9-14.2z"/><path class="dst0" d="M20.2 7L12 20.2l8.2 13.1 8.2-13.1z"/><path class="dst1" d="M20.2 6.7l-2.5 3.7h5zM24.6 26.8h-8.8l-3.3-5.2h15.2zM15.9 13.4h8.6l3.1 5.2h-15zM20.2 33.8l-2.6-4.1h5.3z"/><path class="dst1" d="M16 26.7h6.2c1.8 0 3.3-1.7 3.3-4 0-1.3-.6-2.1-.9-2.5.4-.4.9-.9.9-2.7 0-1.3-1.1-3.9-3.8-3.9H16v13.1z"/><path class="dst0" d="M16.5 26.3h5.1c1.7 0 3.4-1.1 3.4-3.5 0-1.2-.6-2-1-2.5.3-.3 1-.9 1-2.6 0-1.2-.7-3.6-3.7-3.6h-4.9v12.2z"/><path class="dst1" d="M16.9 25.8h4.3c1.9 0 3.3-1 3.3-3.3 0-1.1-.8-2.1-1.2-2.4.4-.2 1.2-.8 1.2-2.4 0-1.3-.7-3.4-3.5-3.4h-4.2v11.5z"/><path class="dst0" d="M18.9 21.1h2.2c.7 0 1.4.4 1.4 1.2 0 1-.7 1.3-1.5 1.3h-2.1v-2.5zM18.9 16.5h1.9c.6 0 1.5.1 1.5 1.2 0 1.2-.8 1.2-1.5 1.2h-1.9v-2.4z"/><path class="dst1" d="M19.3 17h1.4c.4 0 1.1 0 1.1.8 0 .7-.6.8-1.1.8h-1.4V17zM19.3 21.6h1.5c.5 0 1.1.3 1.1.8 0 .7-.6.8-1.2.8h-1.4v-1.6z"/></svg><view id="000005" viewBox="80 0 40 40"/><svg id="eLayer_1" viewBox="0 0 977.2 977.2" width="40" height="40" x="80" xmlns="http://www.w3.org/2000/svg"><style>.est0{fill:#aa1124}.est1{fill:#fff}</style><path class="est0" d="M21.2 488.6c0-258.1 209.2-467.4 467.4-467.4S956 230.5 956 488.6 746.8 956 488.6 956 21.2 746.7 21.2 488.6z"/><path class="est1" d="M489.9 912.3c-57.5 0-113.3-11.3-165.8-33.5-50.7-21.5-96.3-52.2-135.4-91.3-39.1-39.1-69.8-84.6-91.3-135.4C75.3 599.6 64 543.9 64 486.4c0-57.5 11.3-113.2 33.5-165.8 21.4-50.7 52.1-96.2 91.2-135.3 39.1-39.1 84.6-69.8 135.3-91.2 52.5-22.2 108.3-33.5 165.7-33.5 57.5 0 113.2 11.3 165.8 33.5 50.7 21.4 96.2 52.1 135.3 91.2 39.1 39.1 69.8 84.6 91.2 135.3 22.2 52.5 33.5 108.3 33.5 165.8 0 57.5-11.3 113.3-33.5 165.8-21.4 50.7-52.1 96.3-91.2 135.4-39.1 39.1-84.6 69.8-135.3 91.3-52.4 22.1-108.1 33.4-165.6 33.4zm-.1-831.5c-54.8 0-107.9 10.7-157.9 31.9-48.3 20.4-91.7 49.7-128.9 86.9-37.3 37.3-66.5 80.6-86.9 128.9-21.1 50-31.9 103.1-31.9 157.9 0 54.8 10.7 107.9 31.9 157.9 20.4 48.3 49.7 91.7 87 128.9 37.3 37.3 80.7 66.5 129 87 50 21.2 103.1 31.9 157.9 31.9 54.7 0 107.8-10.7 157.8-31.9 48.3-20.4 91.7-49.7 128.9-87s66.5-80.7 86.9-129c21.1-50 31.9-103.1 31.9-157.9s-10.7-107.9-31.9-157.9c-20.4-48.3-49.7-91.7-86.9-128.9s-80.6-66.5-128.9-86.9c-50.1-21.1-103.2-31.8-158-31.8z"/><path class="est1" d="M166.6 700.7h45.9V579.8H331v-38.9H212.5l-.1-71.3h135.1v-41.1l-180.9-.1zM577.5 515c-5.5-58.7-52.1-92.7-111.2-93-78.5 0-125.5 64.8-125.5 142.6s47 142.6 125.5 142.6c63.5 0 107.9-45 111.5-110.2H533c-3.7 39.6-26 71.3-66.8 71.3-56.1 0-79.6-51.5-79.6-103.7s23.5-103.7 79.6-103.7c38.2 0 57.6 22.9 65.3 54.1h46zM588.4 700.7H632V500.5h1.1l119.3 200.2h48.4V428.5h-43.7l.1 200.5h-.8L636.8 428.5h-48.4zM391.6 203.3h63.1v188.3h45.9V124.7h-34.2c-6.2 32-39.6 44.6-74.9 44.2l.1 34.4zM517 391.6h51v-51.4h-51z"/></svg><view id="000006" viewBox="80 40 40 40"/><svg id="fEbene_1" viewBox="0 0 40 40" width="40" height="40" x="80" y="40" xmlns="http://www.w3.org/2000/svg"><style>.fst0{fill:#fff}.fst1{fill:#ec1c24}</style><path class="fst0" d="M20.1 37.9c10.8 0 19.6-8.2 19.6-18.2 0-10.1-8.8-18.2-19.6-18.2S.5 9.6.5 19.7s8.8 18.2 19.6 18.2z"/><path class="fst1" d="M16.8 19.9c-.4-4-2.5-7.1-4.8-6.9-2.3.2-3.8 3.6-3.5 7.6.1.8.2 1.5.4 2.2.8 2.9 2.6 4.8 4.4 4.7 1.7-.1 3-2.1 3.4-4.7.2-.9.2-1.9.1-2.9zM13 23.4c-.5 0-.9-.2-1.3-.7-.5-.6-.9-1.6-1-2.7-.2-2 .6-3.7 1.7-3.8 1.1-.1 2.2 1.4 2.3 3.4.1 1.3-.1 2.4-.6 3.1-.3.5-.7.7-1.1.7z"/><path class="fst1" d="M20.1 35.9c-1.5 0-3-.2-4.3-.5 2.2-3.9 2.6-7.7 2.6-7.7V15.1L11 8.6c-2.9 2.4-4.7 5.8-4.7 9.7 0 5.2 3.4 9.8 8.3 11.8L13 34.4C6.9 31.9 2.7 26.2 2.7 19.6c0-7.8 6-14.3 13.9-15.8h.2c.7 0 1.2.5 1.2 1 0 .4-.3.8-.7 1-1.4.3-2.8.8-4 1.4l6.8 6 6.9-6c-1.2-.7-2.6-1.1-4-1.4-.4-.2-.7-.5-.7-1 0-.6.5-1 1.2-1h.2c7.9 1.5 13.9 8 13.9 15.8 0 6.6-4.3 12.3-10.4 14.8L25.7 30c4.9-2 8.3-6.5 8.3-11.8 0-3.9-1.8-7.3-4.7-9.7L21.9 15v12.5s.4 3.8 2.6 7.7c-1.5.4-3 .7-4.4.7z"/><path class="fst1" d="M30.9 18.6c.5 2.6-1.2 6.3-4.6 8.7-.5.4-.7.6-1.1.8l-.8-2.2c.5-.2.6-.3 1.3-.8 1.6-1.2 2.4-2.7 2.2-4-.2-.9-.9-1.8-2-.9-.9.6-1.4 1.1-2.1 1.9v-6.4l5.3-4.6v2.8l-2.8 2.2V18c.2-.2.4-.3.8-.6 1.8-1.3 3.4-.8 3.8 1.2z"/><g><path class="fst1" d="M20.1 37c-2.5 0-4.9-.5-7.2-1.4-2.2-.9-4.2-2.1-5.9-3.7-1.7-1.6-3.1-3.4-4-5.5-1-2.1-1.5-4.4-1.5-6.8 0-2.3.5-4.6 1.5-6.8.9-2.1 2.3-3.9 4-5.5 1.7-1.6 3.7-2.8 5.9-3.7 2.3-.9 4.7-1.4 7.2-1.4s4.9.5 7.2 1.4c2.2.9 4.2 2.1 5.9 3.7 1.7 1.6 3.1 3.4 4 5.5 1 2.1 1.5 4.4 1.5 6.8 0 2.3-.5 4.6-1.5 6.8-.9 2.1-2.3 3.9-4 5.5-1.7 1.6-3.7 2.8-5.9 3.7-2.3 1-4.7 1.4-7.2 1.4zm0-34.4c-2.5 0-4.9.5-7.2 1.3-2.2.9-4.1 2.1-5.8 3.7-1.7 1.6-3 3.4-3.9 5.4-1 2.1-1.4 4.3-1.4 6.7 0 2.3.5 4.5 1.4 6.7.9 2 2.2 3.9 3.9 5.4 1.7 1.6 3.7 2.8 5.8 3.7 2.3.9 4.7 1.3 7.2 1.3s4.9-.5 7.2-1.3c2.2-.9 4.2-2.1 5.8-3.7 1.7-1.6 3-3.4 3.9-5.4 1-2.1 1.4-4.3 1.4-6.7 0-2.3-.5-4.5-1.4-6.7-.9-2-2.2-3.9-3.9-5.4C31.4 6 29.4 4.8 27.2 4c-2.2-.9-4.7-1.4-7.1-1.4z"/></g></svg><view id="000007" viewBox="0 80 40 40"/><svg id="gEbene_1" data-name="Ebene 1" viewBox="0 0 960.19 960.2" width="40" height="40" y="80" xmlns="http://www.w3.org/2000/svg"><defs><style>.gcls-1,.gcls-4{fill:#ffe500}.gcls-2,.gcls-3{fill:#1d1d1b}.gcls-3,.gcls-4{fill-rule:evenodd}</style></defs><ellipse class="gcls-1" cx="480.09" cy="480.1" rx="480.09" ry="480.1"/><circle class="gcls-2" cx="480.09" cy="480.1" r="457.02"/><circle class="gcls-1" cx="480.09" cy="480.1" r="431.64"/><path class="gcls-3" d="M573.36 870.39c-31.88 0-55.08-24.12-55.08-51.68 0-4-.29-5.81-.1-8.7h30.07c8.71 0 7.31 11.8 7.31 11.8 0 9.08 9.82 13.2 17.22 13.4 9 .25 16.34-8 16.34-17.12l-.13-17.6c-5.75 3.12-17.16 3.06-17.16 3.06-27.24-.75-53.83-24.25-53.83-53.31v-12.95c0-29.06 24.79-51.94 53.85-51.94H573c29.06 0 51.63 23.54 51.63 52.61v79.39c.03 29.91-21.15 52.73-51.27 53.04z" transform="translate(-22.64 -22.51)"/><path class="gcls-4" d="M572.17 722.9h.51a16.45 16.45 0 0 1 16.45 16.44v10.43a16.44 16.44 0 0 1-16.45 16.44h-.51a16.44 16.44 0 0 1-16.45-16.44v-10.43a16.45 16.45 0 0 1 16.45-16.44z" transform="translate(-22.64 -22.51)"/><path class="gcls-3" d="M244 614.91V530.7h49.08c40.61 0 55.11 73.76 2.32 84.2zm0-148.32v-80.38h55.46c36 0 43.35 69.32 2.16 80.37zm-66.15-147v358.4l112.91.12c91.08 0 137.34-110.52 74-178.65a.81.81 0 0 1-.19-.53c0-.33.45-.68.45-.68 52.63-59.45 30.59-163.88-67.3-178.64zM710.41 614.91V530.7h48.75c40.61 0 55.11 73.76 2.32 84.2zm0-148.32v-80.38h55.13c36 0 43.35 69.32 2.16 80.37zm-66.48-147v358.4l112.91.12c91.09 0 137.34-110.52 74-178.65a.81.81 0 0 1-.19-.53c0-.33.45-.68.45-.68 52.63-59.45 30.59-163.88-67.3-178.64zM432 685.6h1.19a52.62 52.62 0 0 1 52.62 52.63v79.47a52.62 52.62 0 0 1-52.62 52.63H432a52.63 52.63 0 0 1-52.63-52.63v-79.47A52.63 52.63 0 0 1 432 685.6z" transform="translate(-22.64 -22.51)"/><path class="gcls-1" d="M409.68 700.84h.53a16.44 16.44 0 0 1 16.44 16.44v78.9a16.45 16.45 0 0 1-16.45 16.45h-.53a16.45 16.45 0 0 1-16.45-16.45v-78.89a16.45 16.45 0 0 1 16.46-16.45z"/><path class="gcls-3" d="M337.02 118.02l117.43 363.34h50.81l116.03-363.34h-71.06l-70.5 242.51-70.02-242.51h-72.69z"/></svg><view id="000009" viewBox="40 80 40 40"/><svg id="hS04_Signet_Outline_4c" viewBox="0 0 980 980" width="40" height="40" x="40" y="80" xmlns="http://www.w3.org/2000/svg"><defs><style>.hcls-1{fill:#fff}.hcls-2{fill:#004b9c}</style></defs><path class="hcls-1" d="M500 990c270.62 0 490-219.38 490-490S770.62 10 500 10 10 229.38 10 500s219.38 490 490 490z" transform="translate(-10 -10)"/><path class="hcls-2" d="M500 972C239.34 972 28 760.66 28 500S239.34 28 500 28s472 211.34 472 472-211.34 472-472 472" transform="translate(-10 -10)"/><path class="hcls-1" d="M613.25 747.74h-23.18v-41.49h-36.24v41.53H529.4s37.74-157.67 38.06-158.39h-40.28s-47.46 198.25-47.46 197.1H552v64.94h38.07v-64.94h23.2v-38.75zm-254.84-107.8v161.31a54.51 54.51 0 1 0 109 0V639.94a54.51 54.51 0 0 0-109 0zm37.09-.07a17.91 17.91 0 1 1 35.82 0v161.46a17.91 17.91 0 0 1-35.82 0V639.87zm91.63-394.73c-2.22-5.48-8.85-35.16 26.55-47.67 11.08-3.07 20.09-2.41 30.67 1.65 27.13 9.84 32.23 46.38 34.22 69.52h29.83l-.05-126.44h-18.29s-9.06 13.54-11.69 17.4c-15.22-9.84-33.08-16.21-50.95-20.83-42.34-7.52-82 2.32-113.14 24.3-39.82 28.27-62.48 92.93-34.63 135.87S487 457.62 487 457.62s5.57 7.76 5.4 16.66c-.24 14.2-6 23.36-17.3 31.35s-22.82 9.72-38.38 6.35c-36.8-7.85-34.47-54.45-34.47-78.05h-43.84v133.28h28.13l9-17.18c11 5 31.34 15.18 48.54 18.08 46.32 9.25 95.94 1.14 129.68-28.94 36.4-30.1 54.88-88.73 18-138.71-38.9-58.8-97.42-137.46-104.62-155.32zm372.32 110.95h32.78C833.6 196.32 680.11 82.31 500 82.31c-230.68 0-417.69 187-417.69 417.69S269.32 917.69 500 917.69s417.53-186.86 417.69-417.41H637.33v155.7h46.27v91.8c0 31.47 0 139.33-183.6 139.33A385.32 385.32 0 0 1 314.81 840V160A385.35 385.35 0 0 1 500 113c183.6 0 183.6 107.86 183.6 139.32v103.77z" transform="translate(-10 -10)"/></svg><view id="00000A" viewBox="80 80 40 40"/><svg id="iEbene_1" viewBox="0 0 40 40" width="40" height="40" x="80" y="80" xmlns="http://www.w3.org/2000/svg"><style>.ist0{fill:#fff}.ist1{fill:#1d1d1b}.ist2{clip-path:url(#iSVGID_2_)}</style><path class="ist0" d="M6.8 20.4c0-10.1 5.7-18.3 12.7-18.3s12.7 8.2 12.7 18.3-5.7 18.3-12.7 18.3S6.8 30.5 6.8 20.4z"/><path class="ist1" d="M19.5 39.2c-1.8 0-3.5-.5-5.2-1.5-1.6-1-3-2.3-4.2-4.1-2.4-3.5-3.8-8.2-3.8-13.2s1.3-9.7 3.8-13.2c1.2-1.7 2.6-3.1 4.2-4.1 1.6-1 3.4-1.5 5.2-1.5 1.8 0 3.5.5 5.2 1.5 1.6 1 3 2.3 4.2 4.1 2.4 3.5 3.8 8.2 3.8 13.2s-1.3 9.7-3.8 13.2c-1.2 1.7-2.6 3.1-4.2 4.1-1.6 1-3.4 1.5-5.2 1.5zm0-36.6c-6.7 0-12.2 8-12.2 17.8s5.5 17.8 12.2 17.8c6.7 0 12.2-8 12.2-17.8S26.2 2.6 19.5 2.6z"/><path class="ist1" d="M8 20.4c0-9.5 5.2-17.2 11.6-17.2s11.6 7.7 11.6 17.2S26 37.6 19.6 37.6 8 29.9 8 20.4z"/><defs><ellipse id="iSVGID_1_" cx="19.5" cy="20.4" rx="11.6" ry="17.2"/></defs><clipPath id="iSVGID_2_"><use xlink:href="#iSVGID_1_" overflow="visible"/></clipPath><g class="ist2"><path class="ist0" d="M4.6 40.6V.3h22.2L11.6 40.6h-7z"/></g><path class="ist1" d="M19.5 37.7c-1.6 0-3.1-.5-4.6-1.4-1.4-.9-2.6-2.1-3.7-3.7C9 29.4 7.8 25 7.8 20.4s1.2-9 3.4-12.3c1.1-1.6 2.3-2.9 3.7-3.7 1.5-.9 3-1.4 4.6-1.4 1.6 0 3.1.5 4.6 1.4 1.4.9 2.6 2.1 3.7 3.7 2.2 3.3 3.4 7.6 3.4 12.3 0 4.6-1.2 9-3.4 12.3-1.1 1.6-2.3 2.9-3.7 3.7-1.4.9-3 1.3-4.6 1.3zm0-34.4C13.2 3.3 8.1 11 8.1 20.4c0 9.4 5.1 17.1 11.4 17.1 6.3 0 11.4-7.7 11.4-17.1C31 11 25.8 3.3 19.5 3.3z"/><path class="ist1" d="M20.4 8.8c.5.6.7 1.4.5 2.1-.1.5-.4 1-.4 1.5-.1.5.1.9-.1 1.3 0 .1-.1.2-.2.1s-.2-.3-.4-.3c-.2.2-.3.5-.4.8-.1.5.1 1 .1 1.5 0 .1 0 .2-.1.3-.1.1-.1.1-.2 0-.2-.2-.2-.4-.4-.5-.1 0-.2.1-.2.2-.1.1-.1.8-.2 1.1 0 .4.1.9.1 1.3-.1.1-.2 0-.3 0H18c-.4.6-.5 1.3-.7 2-.2.9-.3 1.9-.3 2.8-.1.1-.2.1-.3.1-.4-.3-.5-.8-.5-1.3 0-.7.1-1.5 0-2.2 0-.1 0-.4-.2-.4-.3.2-.3.5-.5.8-.6 1.4-1.1 2.8-1.6 4.3 0 .1-.1.3-.2.3-.3-.1-.3-.4-.3-.6-.2-1.5.4-3 .8-4.4 0-.1 0-.2-.1-.3h-.2c-1.2 1-2.1 2.3-3.1 3.4h-.2c-.1-.1-.1-.4 0-.5.4-1.5 1.4-2.8 2.4-4 .1-.2.4-.4.2-.7-.1-.1-.3-.1-.4 0-.8.3-1.5.7-2.3 1.1-.1 0-.1-.1-.1-.1 0-.5.4-.8.7-1.1.9-.8 1.9-1.3 2.9-1.8s2.1-1 3-1.6c.1-.2.3-.4.2-.7-.2-.3-.7-.2-1-.2-.9 0-1.9 0-2.6-.5-.1-.1-.2-.2-.1-.4 1 .1 2 0 2.9 0 .3-.1.6 0 .8-.2 0-.2-.2-.2-.3-.3-.7-.3-1.4-.4-2.2-.5v-.1c.2-.2.4-.1.7-.2.5 0 .9.2 1.3.1.1 0 .1-.1.2-.2 0-.1 0-.2-.1-.3-.5-.4-1.1-.4-1.7-.5-.5 0-1 .1-1.5.1h-1c-.2.1-.3.3-.3.6 0 .1.1.2 0 .3-.3 0-.6 0-.8-.2-.2-.4-.2-.9-.1-1.4.1-.4.6-.3.8-.5.2-.4.6-.1.8-.4.2-.2.4-.4.6-.5 1.2.1 2.5.1 3.7-.1 1.3-.3 2.4 0 3.1.9z"/><path class="ist0" d="M17.8 9.1c.1.1.1.3.1.4-.1.3-.5.3-.7.3-.1-.1-.4-.1-.4-.3-.1-.1 0-.2 0-.3 0-.2.2-.3.4-.3s.5 0 .6.2zM13.1 9.3c0 .1-.1 0-.2 0 0-.1-.2-.1-.1-.2 0 0 .1-.1.2-.1.1.1.1.2.1.3z"/><path class="ist1" d="M17.4 9.2c.1.1.2.2.2.3-.2 0-.4.2-.5 0-.1-.1-.2-.2-.1-.3 0 0 0-.1.1-.1s.2 0 .3.1z"/><path class="ist0" d="M12.7 9.6c.2.1.3.1.5.1.1 0 .1-.1.2-.1l.1.2c-.5.1-1.1 0-1.4.4 0 .1-.2.3-.2.4h-.1c0-.3-.1-.6 0-.9.1-.2.4-.2.6-.3.2 0 .2.2.3.2zM19.9 10.9c0 .4 0 1-.4 1.3-.1-.2 0-.3 0-.6s-.1-.6 0-.8c.1-.1.4-.1.4.1zM19 12.7c.1.2.1.6.1.6 0 .2 0 .5-.2.7-.1-.4-.1-.9-.3-1.3 0-.1.1-.1.1-.2h.2c.1 0 0 .1.1.2zM18 14c.1.1.1.3.2.4 0 .3.1.7-.1 1-.1 0-.1-.2-.1-.2-.1-.4-.2-.8-.3-1.1.1-.1.2-.1.3-.1zM15.7 16.1c-1.2.4-2.5.9-3.6 1.5 1.1-1.1 3.3-1.9 3.5-2 .1.1.1.3.1.5zM17.4 16.9c-.2.6-.5 3-.6 4.3-.2-1.6-.3-2.7.1-4.4.2 0 .4 0 .5.1zM15.4 17.1c-.9 1-2.5 2.9-3.7 4.3.7-1.7 2.5-4 3.3-4.5.2-.1.4 0 .4.2zM16.2 17.4c-.9 1.9-1.5 3.3-2.2 5.6.2-2.4 1-4.4 1.8-5.7.1-.1.3 0 .4.1z"/><g><path class="ist0" d="M28 24.1c-1.2-2.3-4.1-3.2-6.4-1.9-2.3 1.2-3.2 4.1-1.9 6.4s4.1 3.2 6.4 1.9c1-.5 1.8-1.4 2.2-2.5h.7c-.9 2.9-4 4.5-6.9 3.6s-4.5-4-3.6-6.9 4-4.5 6.9-3.6c1.5.5 2.7 1.6 3.4 3H28z"/><path class="ist0" d="M23.8 31.9c-.6 0-1.1-.1-1.7-.3-2.9-.9-4.5-4-3.6-6.9.9-2.9 4-4.5 6.9-3.6 1.5.5 2.7 1.6 3.4 3H28c-.6-1.1-1.6-1.9-2.8-2.3-1.2-.4-2.5-.2-3.6.4-1.1.6-1.9 1.6-2.3 2.8-.4 1.2-.2 2.5.4 3.6.6 1.1 1.6 1.9 2.8 2.3 1.2.4 2.5.2 3.6-.4 1-.5 1.8-1.4 2.2-2.5h.7c-.4 1.4-1.4 2.5-2.7 3.2-.8.4-1.6.7-2.5.7zm0-11c-.9 0-1.7.2-2.5.6-1.3.7-2.3 1.8-2.7 3.2-.9 2.9.7 5.9 3.6 6.9 1.4.4 2.9.3 4.2-.4 1.3-.7 2.2-1.8 2.7-3.2h-.8c-.4 1.1-1.2 2-2.2 2.5-1.1.6-2.4.7-3.6.4-1.2-.4-2.2-1.2-2.8-2.3-.6-1.1-.7-2.4-.4-3.6.4-1.2 1.2-2.2 2.3-2.8 1.1-.6 2.4-.7 3.6-.4 1.2.4 2.2 1.2 2.8 2.3h.8c-.6-1.4-1.9-2.5-3.3-3-.6-.1-1.2-.2-1.7-.2z"/></g><g><path class="ist0" d="M23 24.3h3.5v.7h-2.8v1.9h2.7v.7h-2.7v3h-.6v-6.3z"/><path class="ist0" d="M23 30.5v-6.2h3.5v.7h-2.8v1.9h2.7v.7h-2.7v3h-.3c-.2-.1-.4-.1-.4-.1zm0-6.2v6.2h.6v-3h2.7v-.7h-2.7V25h2.8v-.6H23z"/></g><g><path class="ist0" d="M25.6 23.7c-.3-.7-1.1-1.2-1.9-1.2-1.1 0-2 .8-2 1.9 0 1.2 1.2 1.7 2.2 2 .7.3 1.4.5 1.4 1.5 0 .9-.7 1.7-1.6 1.7-1 0-1.6-.6-1.8-1.5l-.7.2c.3 1.2 1.3 1.9 2.5 1.9 1.3 0 2.4-.9 2.4-2.3 0-2.7-3.6-1.8-3.6-3.6 0-.6.6-1.2 1.3-1.2.6 0 1.1.3 1.3.8l.5-.2z"/></g></svg><view id="00000B" viewBox="0 0 40 40"/><svg id="jEbene_1" viewBox="0 0 1000 1000" width="40" height="40" xmlns="http://www.w3.org/2000/svg"><style>.jst0{fill:#fff}.jst1{fill:#ffe108}.jst2{fill:#e2101a}.jst3{fill:#1d1d1b}</style><g id="jVordergrund"><path class="jst0" d="M294.2 164.6c5.1-5.3 16.5-16.4 37.5-15.7 13.1-6.1 28.2-3.7 33.8-.4 0 0 9.5-.2 15.6 2.7a375.9 375.9 0 0 1 238.1 0c6.1-2.9 15.6-2.7 15.6-2.7 5.6-3.3 20.6-5.7 33.8.4 21-.7 32.4 10.4 37.5 15.7 2.9-8.1 8-14.9 19.8-19 4.2-22 32.8-31.9 73.2-11.6 18-16.3 44.4 1.1 53 24.6 13.3-3.4 34.3 9 32.9 48.6 13.5.7 18.7 14.9 14.9 37.8 8-1.7 47.3-9 75.5 26.8 13.4 17.1 5.6 38.9-8.7 49.5-1 2.7-6.9 26.5-25 36.2-1.1 12.1 19.9 37.9 27.7 54.9 22.1 47.8 11.1 129-70.9 142.8 3.6 3.4 12 14.8 14.7 24.3 3.5 12.3.9 24.1-5.3 34.3-6.8 11.2-32.1 27-38.4 34.9 11.7 7 25.1 21.2 19.1 48l-23.2 104.8c-3.8 17.1-15.2 31.5-33.8 35.3-9.4 1.9-19.3-.1-25.2-1.7-40.8-10.8-70.3-2.4-115.5 12.2-23.6 7.6-49.2 16.1-79.7 22.7-73.2 15.4-148.8 15.4-222 0-30.5-6.6-56.1-15-79.7-22.7-45.2-14.6-74.7-23-115.5-12.2-5.9 1.6-15.8 3.6-25.2 1.7-18.6-3.7-30-18.2-33.8-35.3l-23.3-104.8c-6-26.8 7.4-41 19.1-48-6.3-8-31.6-23.8-38.4-34.9-6.2-10.2-8.8-22-5.3-34.3 2.7-9.5 11.1-20.9 14.7-24.3-82-13.9-93-95.1-70.9-142.9 7.9-17 28.8-42.8 27.7-54.9-18-9.7-24-33.5-25-36.2-14.3-10.6-22.1-32.4-8.6-49.5 28.2-35.8 67.5-28.5 75.5-26.8-3.8-22.9 1.4-37.1 14.9-37.8-1.4-39.6 19.6-52 32.9-48.6 8.6-23.6 35-41 53-24.6 40.3-20.3 68.9-10.4 73.2 11.6 11.8 4.2 16.8 11 19.7 19.1z"/><path class="jst1" d="M397.4 831c-29-6.3-53.5-14.4-75.9-21.7-44-14.2-82.4-26.1-133-14.2-10.3 2.6-13.9 2.5-16.2-8l-21-94.4c-1.9-8.8.7-10.6 9.1-12.5 62.4-13.4 114-4.2 165.8 9 27.1 7 54.1 14.9 82.3 21.1 28.7 6.3 58.8 10.8 91.6 10.8s62.8-4.5 91.6-10.8c28.2-6.2 55.2-14.1 82.3-21 51.8-13.2 103.3-22.4 165.8-9 8.5 1.9 11 3.7 9.1 12.5l-21 94.4c-2.3 10.5-5.9 10.5-16.2 8-50.5-11.9-89 0-133 14.2-22.5 7.3-46.9 15.4-75.9 21.7-67.8 14.2-137.7 14.2-205.4-.1zm-1.2-541l-2.7-1.7.7-3.1c1.8-8.3.7-15.6-12-16l-3.1-.1-9.7-30.3 2.7-1.9c8.7-6.2 6.7-14-5.1-18.3l-3-1.1v-3.1c0-5 3-7.8 5.2-9.8.5-.5 1.1-1 1.7-1.5s1.1-1 1.6-1.6c1.2-1.3 2.2-2.7 3-4.3l.8-1.4 1.5-.6c78.7-30.8 166.1-30.8 244.7 0l1.5.6.8 1.4c.8 1.5 1.8 3 3 4.3.5.6 1.1 1.1 1.6 1.6s1.1 1 1.7 1.5c2.2 2 5.2 4.8 5.2 9.8v3.1l-3 1.1c-11.8 4.3-13.9 12.1-5.1 18.3l2.7 1.9-9.7 30.3-3.2.1c-12.7.4-13.9 7.8-12 16l.7 3.1-2.7 1.7c-3.8 2.3-7.2 11.5-5 18.2l3.3 10-9.5-4.6c-58.6-28.1-126.8-28.1-185.5 0l-9.5 4.6 3.3-10c2.3-6.7-1.1-15.9-4.9-18.2z"/><path class="jst2" d="M847.7 370.6c-.3.4-.6.8-.9 1.1-3.5 3.6-10.3 7.2-16.3 7l-5-.1.5 5c2 21.7 14.8 50.7 27.9 65.8 13.2 15.2 20.2 31.8 19.5 46.7l-.2 4.3 4.2.4c25.1 2.4 42.6-9.5 48.9-26.7 9.5-26-9-54.2-21.6-73.2-16.6-25.1-13.8-53.6-10-71.6l.6-3-2.5-1.7c-5-3.4-7.7-9.1-7.7-15.6 0-7.3 1.8-15.2 9-22.4 7.6-7.6 15.8-8.6 27.7-8.6 5.8 0 20.4 6.4 24.7 12.8.1.2.1.4.1.5 0 .2-.3.7-1.3 1.2-4.9 2.6-7.7 6.9-9.5 11.1-1.7 3.9-2.9 8.2-4.5 12.4-2.7 7.1-6.2 12.4-17.6 12.4h-3.4l-.9 3.2c-1.6 5.9-2.6 12-2.8 18.2-.7 18.6 3.9 31.2 10.8 42.5 2.3 3.8 6 9.3 9.8 15.4 3.9 6.1 7.4 12.5 10.6 19 16.3 35.1 5.3 78.2-34.3 90.8-6.3 2-20.6 4-35.7 1.4l-2.5-.4-1.7 2c-.9 1.1-1.8 2.1-2.8 3.1-1.5 1.5-3.3 3.1-5.3 4.8l-1 .8-.4 1.2c-3.4 11.2-2.3 24.3 9 37.4 4.5 5.2 8.4 9.4 11.3 13s4.5 6.1 5.1 8.1c.8 2.7.2 6.1-10.6 13.9-27.7 19.9-38.9 36.8-45 48.9-2.8 5.6-4.4 10-6.2 13.1-1.3 2.2-2 2.5-3.5 2.5-5.5-.2-13.4-1.1-19.2-3.6l-3.6-1.5-2 3.3c-3.6 6-17.8 7.1-23.5 3.3l-1.9-1.2-2.1.8c-11.7 4.4-19.7 3.7-24.4 2.3-1.8-.5-3.6-1.3-5.2-2.4-.4-.3-.8-.5-1.1-.8-20.9-1.6-22.4-23-13.3-34.5 2-2.6 8.3-10.2 21.3-10.2 8.9 0 51-26.4 51-40.4 0-3.2-2.1-5.5-3.7-6.9-2-1.7-4.2-3.2-6.5-4.5-4.8-2.9-11.1-6.2-17.5-10.3-12.6-8.2-23.6-18.7-23.6-34 0-12.3 3.5-33.5 37.9-33.5h4.6v-4.5c0-25-25.1-49.9-37.5-59.4-6.7-5.3-12.1-12.1-15.7-19.9l-.8-1.7-1.8-.6c-12.8-4.5-24.2-19-34.9-36-5.3-8.4-10.2-17.1-14.9-24.7s-9.3-14.7-13.9-19.5l-1.3-1.4h-1.9c-5.6.1-12.8-2.1-18.9-4.5l-2.2-.9-2 1.4c-11 7.6-23 2.7-23.6-3.7l-.4-4h-4.1c-6.3 0-8.9-3.8-9.1-9.6-.2-6.4 2.7-12.5 5.6-14.2l2.7-1.7-.7-3.1c-1.7-7.7-4.8-31.1 61.3-2.2 1.8.8 3.7 1.7 5.6 2.7l8.4 4.2-2-9.2c-2.6-11.5-7.7-22.4-18.6-31.8l-2.3-2-2.7 1.3c-4.3 2.2-7.4 1.8-11.1 0-2.4-1.3-4.8-2.8-7-4.5-2.7-2-5.7-4.2-9.1-6.6-9.3-6.4-7.2-14.3 4.7-18.6l3-1.1v-3.1c0-2.2-.6-4.4-1.9-6.2-.5-.8-1.1-1.5-1.8-2.1-.5-.6-1.1-1.1-1.8-1.7s-1.1-1-1.7-1.6l-1.7-1.7c-1.3-1.5-2.4-3.1-3.2-4.8-3.3-6.9 4.2-14.9 14-10.5l6.3-3.6c.3-.2.7-.4 1.1-.5 2-.7 4.1-.9 6.2-.8 5.8.1 9.8 2 10.5 3.1l7.5-.1c-.2.1-.4.4-.5.6.3-.1.6-.2.9-.2 1.5-.1 3.1.2 4.5.8 3.8 1.6 9.4 6.2 14.1 17.6l1.5 3.6 3.8-1c3.2-.9 6.5-1.6 9.9-2 2.2-.2 9.8-.8 11.6-1.1 1.9-.3 3.8-1.1 5.3-2.4 1.2-1 2.3-2 3.4-3.2.4-.5.9-1 1.4-1.4s.8-.8 1.3-1.2c.7-.7 1.6-1.2 2.5-1.6 2.2-.5 4.5-.9 6.7-1.2l5.1-.7-1.3-4.9c-.4-1.4-.8-3.2-1.1-4.9-.1-.7-.2-1.4-.2-2.1v-.6c.2-.7 1.1-1.7 4.3-2.7 3.4-1.1 7.2-1.6 9.6-2.4 1.4-.5 2.9-1 4.3-1.5 1.6-.6 3.1-1.4 4.5-2.4 3.2-2.4 4.8-6.2 2.8-10.5.9.1 2.1.3 3.7.6 3.1.6 6.1 1.4 9.1 2.6 1.1.4 2.2.9 3.2 1.5l.4.3c-.1.4-.2.9-.3 1.3-.4 1.2-5 9.5-5 9.5s9.2-.9 10.3-.9c1.5 0 3 .1 4.5.3 2.3.4 4.6.9 6.5 1.2 2.2.4 4.4.5 6.5.1 2.9-.6 5.2-2.9 5.8-5.8.3-1.8.3-3.6-.1-5.4 2.2.5 4.4 1.2 6.4 2.2 7.5 3.6 10.3 8 9.2 11.1-.9 2.4-4.3 4.9-4.4 4.9l-5.2 3.5 5.5 4.1c.3.3.7.6 1 .9 1.2 1.2 2.2 2.6 3 4.1 3.2 6 9.9 3.9 12.6 2.3 3.4-1.9 5.8-5.1 6.8-8.8 3.5 3.7 6.9 9.8 7.3 14.2.4 3.9-.6 8.3-2.4 9.7-.6.5-4.1 1-4.6 1.1l-6.4.7s3.4 6.6 3.7 7.7c.6 2.1.8 4.4.7 6.6-.3 7.6 6.9 8.8 10.7 8.2 3.3-.6 6.4-2.2 8.7-4.6.3.6.6 1.2.9 1.9 2 4.9 3.1 11.4 1.8 16.1-.8 2.7-4.7 6.4-5.9 6.7-.5.1-1.1.1-1.6.1-.8 0-1.6-.1-2.3-.2-.9-.1-1.9-.2-2.8-.2-4.1.2-5.2 2.7-4.9 5.5.1 1 .2 1.9.2 2.9s-.1 2.2-.2 4c-1 13.8 10.6 13.8 18.2 9.7.4 2.3.5 4.7.4 7.1 0 3.5-.7 7-2 10.2-1.2 2.7-2.7 3.8-4 4-3.2.5-4.5-.1-4.9-.3-5.9-3-7.5-.9-8.2 2.5-.1.6-.2 1.1-.4 1.9-.3 1-.7 2-1.2 2.9-3.3 7-.2 12.4 5.9 13.6 3.1.5 6.2.3 9.2-.7-.1 2.2-.4 4.4-1 6.6-1.9 7.1-5.8 11.5-10.8 11-.2 0-.4-.1-.6-.2-.6-.3-1.1-.6-1.6-1-.8-.6-1.6-1.1-2.5-1.5-1.2-.6-2.6-1-4-1-1.5 0-4 .9-5.1 4.3-.4 1.4-.6 2.7-.8 4.1-.3 3.6-.2 7.1.3 10.7.4 3.9 1.6 7.7 3.4 11.3 1.9 3.4 5.1 6.7 10.2 6.7 0 .3.4.3.7.3zM236.2 158.7c-1.8 4.2-.3 8 2.9 10.3 1.4 1 2.9 1.8 4.5 2.4 1.4.6 2.9 1 4.3 1.5 2.4.8 6.2 1.3 9.6 2.4 3.2 1 4.1 2 4.3 2.7v.6c0 .7-.1 1.4-.2 2.1-.3 1.7-.8 3.6-1.1 4.9l-1.3 4.9 5.1.7c2.3.2 4.5.6 6.7 1.2.9.4 1.8.9 2.5 1.6.5.4.9.8 1.3 1.2s.9 1 1.4 1.4c1 1.2 2.2 2.2 3.4 3.2 1.5 1.2 3.4 2 5.3 2.4 1.8.3 9.4.9 11.6 1.1 3.3.4 6.6 1.1 9.9 2l3.8 1 1.5-3.6c4.7-11.4 10.3-15.9 14.1-17.6 1.4-.7 3-.9 4.5-.8.3 0 .6.1.9.2-.1-.3-.3-.5-.5-.6l7.5.1c.7-1 4.8-2.9 10.5-3.1 2.1-.1 4.2.2 6.1.8.4.1.8.4 1.1.6 15.9-1 23.5 7 20.2 13.9-.8 1.7-1.9 3.3-3.1 4.8-.6.6-1.1 1.2-1.6 1.7s-1.2 1.1-1.7 1.6-1.2 1.1-1.8 1.7c-.7.7-1.2 1.4-1.8 2.1-1.3 1.8-1.9 4-1.9 6.2v3.1l3 1.1c11.9 4.3 14 12.2 4.7 18.6-3.4 2.3-6.4 4.6-9.1 6.6-2.2 1.7-4.5 3.2-7 4.5-3.7 1.9-6.7 2.3-11.1 0l-2.7-1.4-2.3 2c-10.9 9.4-16 20.3-18.6 31.8l-2 9.2 8.4-4.2c1.9-1 3.8-1.9 5.6-2.7 66.2-28.9 63-5.5 61.3 2.2l-.7 3.1 2.7 1.7c2.9 1.8 5.9 7.9 5.6 14.2-.2 5.8-2.9 9.6-9.1 9.6h-4.1l-.4 4c-.6 6.4-12.6 11.3-23.6 3.7l-2-1.4-2.2.9c-6.1 2.4-13.2 4.5-18.9 4.5h-1.9l-1.5 1.5c-4.6 4.8-9.2 11.9-13.9 19.5s-9.6 16.3-14.9 24.7c-10.8 17-22.1 31.6-34.9 36l-1.8.6-.8 1.7c-3.6 7.8-8.9 14.7-15.7 20-12.4 9.5-37.5 34.4-37.5 59.4v4.4h4.5c34.5 0 37.9 21.2 37.9 33.5 0 15.3-11 25.8-23.6 34-6.4 4.1-12.7 7.5-17.5 10.3-2.3 1.3-4.5 2.8-6.5 4.5-1.6 1.4-3.7 3.7-3.7 6.9 0 14 42.1 40.4 51 40.4 13.1 0 19.3 7.7 21.3 10.2 9.1 11.6 7.6 33-9.9 33h-1.7l-1.8 1.6c-.4.3-.7.6-1.1.8-1.6 1.1-3.3 1.9-5.2 2.4-4.8 1.4-12.7 2.1-24.4-2.3l-2.1-.8-1.8 1.2c-5.7 3.7-19.9 2.6-23.5-3.3l-2-3.3-3.6 1.5c-5.8 2.5-13.8 3.4-19.2 3.6-1.5 0-2.2-.4-3.5-2.5-1.8-3-3.4-7.5-6.2-13.1-6.1-12.1-17.3-29-45-48.9-10.9-7.8-11.4-11.2-10.6-13.9.6-2 2.1-4.5 5.1-8.1s6.9-7.9 11.3-13c11.3-13.1 12.4-26.2 9-37.4l-.4-1.2-1-.8c-2-1.7-3.8-3.3-5.3-4.8-1-1-2-2-2.9-3.1l-1.6-2-2.5.4c-15.1 2.6-29.3.6-35.7-1.4C57 505 46 461.9 62.3 426.8c3.1-6.5 6.7-12.9 10.6-19 3.8-6.1 7.4-11.6 9.8-15.4 6.9-11.3 11.6-23.9 10.8-42.5-.2-6.1-1.1-12.2-2.8-18.2l-.9-3.2h-3.4c-11.3 0-14.8-5.3-17.6-12.4-1.6-4.1-2.8-8.5-4.4-12.4-1.8-4.2-4.6-8.5-9.5-11.1-1-.5-1.2-1-1.3-1.2-.1-.2 0-.4.1-.5 4.2-6.4 18.8-12.8 24.6-12.8 11.9 0 20 .9 27.7 8.6 7.2 7.2 9 15.2 9 22.4 0 6.5-2.7 12.2-7.7 15.6l-2.5 1.7.6 3c3.8 18 6.6 46.5-10 71.6-12.6 19-31.2 47.2-21.6 73.2 6.3 17.1 23.8 29 48.9 26.7l4.2-.4-.2-4.3c-.7-14.9 6.3-31.5 19.5-46.7 13-15 25.9-44.1 27.9-65.8l.4-5-5 .1c-6 .2-12.8-3.4-16.3-7-.4-.4-.7-.8-1-1.2h1.2c5 0 8.3-3.4 10.2-6.7 1.8-3.5 2.9-7.3 3.4-11.3.5-3.5.6-7.1.3-10.7-.1-1.4-.4-2.8-.8-4.1-1.1-3.5-3.6-4.3-5.1-4.3-1.4 0-2.8.4-4 1-.9.5-1.7 1-2.5 1.5-.5.4-1 .7-1.6 1-.2.1-.4.2-.6.2-5 .4-8.8-3.9-10.8-11.1-.6-2.1-.9-4.3-1-6.6 3 .9 6.1 1.2 9.2.7 6.1-1.2 9.2-6.6 5.9-13.6-.5-.9-.9-1.9-1.2-2.9-.2-.7-.3-1.3-.4-1.9-.7-3.5-2.3-5.5-8.2-2.5-.4.2-1.7.8-4.9.3-1.4-.2-2.8-1.3-4-4-1.3-3.2-2-6.7-2-10.2-.1-2.4 0-4.7.4-7.1 7.6 4.1 19.3 4.1 18.2-9.7-.1-1.8-.2-3-.2-4s.1-2 .2-2.9c.4-2.8-.8-5.3-4.9-5.5-.9 0-1.9 0-2.8.2-.7.1-1.5.2-2.3.2-.5 0-1.1 0-1.6-.1-1.3-.3-5.1-4-5.9-6.7-1.4-4.7-.3-11.2 1.8-16.1.3-.7.6-1.4.9-1.9 2.3 2.4 5.4 4 8.7 4.6 3.8.6 11-.6 10.7-8.2-.1-2.2.1-4.5.7-6.6.3-1.1 3.7-7.7 3.7-7.7l-6.4-.7c-.6-.1-4-.6-4.6-1.1-1.8-1.4-2.8-5.8-2.4-9.7.4-4.5 3.8-10.6 7.2-14.1 1 3.7 3.5 6.8 6.9 8.7 2.7 1.6 9.4 3.6 12.6-2.3.8-1.5 1.8-2.9 3-4.1.3-.3.7-.6 1-.9.1-7.7-3.3-10.1-4.2-12.5-1.1-3.1 1.7-7.5 9.2-11.1 2-1 4.2-1.7 6.4-2.2-.4 1.8-.4 3.6-.1 5.4.6 2.9 2.9 5.2 5.8 5.8 2.2.4 4.4.3 6.6-.1 1.9-.3 4.2-.8 6.5-1.2 1.5-.2 3-.3 4.4-.3 1.2 0 10.3.9 10.3.9s-4.6-8.3-5-9.5c-.2-.5-.3-.9-.3-1.4.1-.1.1.1.5-.1 1-.6 2.1-1.1 3.2-1.5 2.9-1.2 6-2 9.1-2.6 1.1-.4 2.3-.5 3.6-.6z"/><path class="jst3" d="M72.7 314.6c3.2 8.2 5.2 10.7 20.3 10.1 2.6 8.1 4.1 16.5 4.6 25 .7 19.5-4.2 32.9-11.3 44.8-2.3 3.9-6 9.3-9.8 15.5-3.8 6-7.3 12.2-10.3 18.6-15.6 33.6-4.8 73.6 31.9 85.2 5.4 1.7 17.4 3.5 30.4 1.8-1.9-3.4-3.3-7.1-4.2-10.9-27 2.9-46.8-9.7-54-29.2-5.3-14.5-2.6-29.2 2.6-42.1s13-25 19.5-34.7c15.7-23.7 13.8-51.5 8.3-75.2 5.2-2.8 10.6-4.9 10.6-14.5 0-6.8-1.4-13.6-7.7-19.4-14-13.2-36.2-4.8-44 1.1 3.8 3 6.8 6.9 8.6 11.4 1.7 3.9 2.9 8.3 4.5 12.5zM255 399.5c2.6 2.7 6.4 4.3 11.6 4.3 11.5 0 23-11.1 35.5-30 6-9 11.5-18.7 16.7-27.3s10.6-17.2 16.1-22.9l2.8-2.9c10.1 1.2 25.7-5.9 25.7-5.9l4.1 2.8c3.6 2.3 7.8 3.2 12 2.6 2.4-.1 4.2-2 4.4-4.4.6-4.7-3.5-8.3-6.1-9.6-5.4-2.6-1.5-10.6 3.9-8.1 0 0 6.2 2.5 10.3 10.8 4.5.4 4.9-2 5.1-4.8.5-5.4-2.7-14.8-17-14.9-5.9.4-6.6-8.5-.6-8.9 0 0 6.3-.4 10.4 1.5.7-4.2-.9-6.2-2.6-6.9-5.1-2-19.2-2.1-52.4 12.6-7.5 3.3-23.3 12.9-38.3 18.6 3.3 4 8.6 6.2 13.5 2.1 8.1-6.7 6.4 27.5-6.1 29.3-2.9.3-5.9-.4-8.3-2.2-.3 2.2-.9 4.4-1.8 6.5-2.8 5.4-1.6 11.9 7.1 11.4.1 10.5-9.3 25.3-24.5 19.7-10.7-3.9-6.3-20.2-18.4-18.3-.3.1-1.6 5.9-1 13.4 1.8 22.2 10.6 17.1 11.1 19.6 1 5.6-5.4 10.5-13.2 11.9zm9.5 13.6c-11.9-.6-18.4-6.7-21.6-14.6-6.3-2.4-11.6-8.1-12.7-18.7-1-9.9 4.8-22.8-5.4-22.8-1.7 0-3.6 7.7-4.4 11.5-5.1 23.8 6.3 17.6 2 22.6-7.4 8.6-32.7 6.7-29.9-18.1.8-7.1 7.8-20.6.5-20.6-5.2 0-4.5 19.3-13.7 27.3-.6 25.2-16.7 58.4-29.3 72.9-21.5 24.8-24.4 50.4-7.1 67.6 2.5 2.5 6 5.4 9.6 8.5 4.2 3.6 8.1 7.5 11.6 11.7 7.2 9.1 12.7 22.9.3 36.3-3 3.2-5.6 6.3-7.9 8.9-5.6 6.1-1.8 8.3 3.1 11.7 20.3 14.2 32.3 26.9 40.3 38.2 3.5 4.9 6.5 10.1 9.2 15.5 2.2 4.4 4 8.4 5.9 12.2 1.2 2.5 12 6.3 19.6 0 .2-5-1.9-10.7-4.8-14.9-3.6-5.1 4.1-10.5 7.7-5.3 4 5.8 7.3 15.1 6.4 22.4 8.6 3 15.5 2.7 21.4-.8.9-8.8-1.5-15.1-4.5-19-3.8-5 3.7-10.7 7.5-5.7 4.4 6.2 6.7 13.6 6.7 21.1 5.1-.5 7-3.9 7.6-7.8.9-6.2-1.3-13.6-4-17.1-1.7-2.2-6.7-8.3-17.5-8.3-10 0-55.9-27.3-55.9-45.3 0-5.4 3.6-9 5.3-10.6 2.3-1.9 4.7-3.6 7.2-5.1 4.7-2.8 11-6.1 17.4-10.2 12.4-8.1 21.4-17.3 21.4-29.9 0-11-3.3-26.1-25.8-28.2-4.8-.4-21.2-2-31.6 3.3-5.6 2.8-10.5-4-5.4-7.7 0 0 5.8-4.2 20.4-5.6.2-27.5 27-53.6 39.4-63 4.3-3.4 8.1-7.6 11-12.4zM152.3 540.7c.2 9.6-2.9 20-11.8 30.2-4.4 5.1-8.4 9.3-11.2 12.9-5.4 6.7-5.7 8 4.7 15.6 28.2 20.5 40 37.8 46.3 50.5 4.2 8.5 5.3 13.3 7.1 13.2 3.7-.3 7.4-.8 11-1.6 1.8-.4 3.6-1 5.3-1.7-6.6-14-16-31.8-48.8-54.9-18-12.7-9.2-21 3.4-34.6 9.6-10.5 2.9-20.8-6-29.6zm149.9-276.8H273v-22.6s23 .1 30-.7c2.6-.3 5.2-.2 7.8.3.5.1 1.6-.1 1.6-.9.7-4 .4-13.1.4-13.1 3.4-3.8 5.3-8.8 5.2-13.9-7.8-2.9-15.8-5.4-22.1-6.1-2.2-.3-9.9-.8-11.7-1.1-2.5-.4-4.9-1.3-6.9-2.9-1.3-1-5.5-6.6-7.7-7.1-16.7-3.7-35.6-1.9-40-1-3.4.8-6.1 3.3-7.2 6.6-3.1 0-10.1-.1-13 .6-3.4.7-4.6.9-4.7 3.2-.1 4 9.9 10.4 9.9 10.4-1.4 7.5-3.4 14.9-5.8 22.1-.8 2.2-.8 4.1 1.1 8.6 2.7 6.2 9.3 9.7 18.2 11.1 6.5 1 14.7 11.3 18.8 12.9 2.4 1 17.9.8 23.9.6 12-.5 24.2-1.4 28.3-2.3 1.1-.2 2.4-3.1 3.1-4.7zm-24.9 14.8c-14.4.8-30.4 1-34.3-1.1-8-4.4-12.6-11.5-16.6-12.2-9.3-1.8-19.6-5.6-24-15.8-5.2-12.1.2-14.6 3.3-30.6-11.4-8.8-10.9-17.2-5.2-22.1 2.4-2.1 10.2-3.4 17.5-3.4 2-8.1 22.7-8.6 38-7.5.3-1.2.7-2.6 1.1-3.8.6-2.1.6-2.7-2.7-3.4-7.2-1.5-11.3-2.6-16.2-5.5-4.3-2.5-6.8-7-6-9.2.9-2.5-6.6.1-7.4 1.4-1.2 2.4 5.2 12 5.2 12-4.8-.4-9.6-.5-14.4-.4-7.8.4-12.5 2.4-18 1.8-6.6-.7-10.2-5.9-9.8-9.7.3-2.3-8.6 4-8.3 6.6.2 2 3.1 5.6 10.4 10.4-12.6 7.4-9.5 16.4-20.4 16.8-3.2.1-11.8-2.3-12.7-7-.6-2.8-6.5 7.6-3 12.8 1.9 2.7 3.8 2.5 12.9 3.1-3.6 7.2-4.2 10.6-4.2 16.6 0 5.8-1.9 8-6.3 10.7-3.2 2-10.4 3.2-15.1-1.4-1.3-1.3-2.5 8.2-1.4 11s2.7 4.3 7.2 4.1c6.8-.2 10.6-1.6 10.6-.3-.4 6.4-.3 12.9.2 19.3.8 10.7-10.8 15.5-18.8 11.4-2-1.1-.1 12.5 3.6 12.9 7 .7 13.5-5.7 13.8-3.8 1.7 11 4.1 12.1 4.8 17.4 1.6 12.4-10.5 15.6-14.8 13.8-3-1.3.9 12.1 7.1 9.6 2.2-.9 5.1-3.5 8-3.5 4.5 0 7.3 1.6 9.1 7.5.9 3 1.4 9.5.4 16.1-.5 4.3-1.7 8.4-3.7 12.3-1.3 2.3-3.7 4.9-6 5.5-4.2 1.1 6.8 6 12.2 2.9 4.4-2.5 7.6-19.1 8.5-21.4 2.6-6.6 7.2-8.6 11-8.6 5.3-.2 10 3.4 11.3 8.6.6 3.1.5 6.3-.2 9.4-.5 2.3-2.9 10.7-3.1 12.1-3 14.6 13 15.1 11.3 13.3-2.5-2.6-2.1-11.4-.1-20.5.5-2.1 2.2-9.6 3.9-12.5 2.6-4.5 6.3-5.7 8.7-5.7 12.6 0 14.5 10.1 14.5 15.8 0 2.4-.7 12.7-.7 14.6 0 17.2 21.8 12.8 18.1 11.1-4.3-1.9-6.9-8.7-8.2-21.3-1-10.4 1.7-20.8 2.6-21.1 8.8-2.7 17.7-2.9 23.1 7.9 1.4 2.7 2.6 7.5 4.3 8.9 3.6 3 10.9-.1 12.5-4.9-7.9-3-8.3-14.5-4.5-22.1 2-4.3 3.4-8.9 4.2-13.6 1.2 1.4 8.7 7 12.5 5.8 2.8-.9 5.7-12.9 2.8-11.3-6.3 3.5-13.9-4.4-16.7-8.1-3.2-4.1-5-9.1-5.2-14.2-.1-5.7-.6-12.6-6.7-17.5zm37.9 8.3c2.1-14.7 7.2-29.2 21.3-41.4l4.5-3.9 5.4 2.7c2.9 1.5 4.4 1.3 7 0 2.2-1.2 4.3-2.6 6.4-4.1 2.8-2 5.9-4.3 9.4-6.7 6.8-4.6 4-8-3.3-10.5l-6.4-2.4v-5.1c0-8.1 3.7-11.5 7-14.4.6-.5 6.8-5.6 5.9-9-1.1-4.1-9.7-2.8-9.7-2.8-3.9 1.1-6.9 6.8-8.1 9.6-2.4 5.8-11.1 2.2-8.7-3.6 1.5-3.3 3.4-6.4 5.8-9.1-.2-2-7.9-1.3-10.3.4-2 2.7-3.5 5.9-4.3 9.2-1.1 6.1-10.4 4.5-9.2-1.7.4-1.9 1.1-3.8 1.9-5.6-4.3-.2-9.6 5.2-13.9 15.2 3.3 1.1 6.5 2.4 9.6 3.6 1.5 8.1 0 16.5-4.6 22.4 0 8.6.5 20.9-9 19.4-2.6-.5-5.2-.7-7.8-.6-7.2.9-17.8.7-22.9.7v6.7h29.4c3.2 3.1-1.9 19.3-10.2 20.7-2.2.4-6.7.9-12.2 1.3 4.1 6.6 4.5 14.8 5 19.5 7.4-3.1 14.8-6.6 22-10.5zm369.8 0c7.2 4 14.6 7.5 22.3 10.5.5-4.7.9-12.9 5-19.5-5.5-.5-10-.9-12.2-1.3-8.3-1.5-13.4-17.6-10.2-20.7h29.4v-6.7c-5.1 0-15.7.1-22.9-.7-2.6-.1-5.3.1-7.8.6-9.6 1.5-9-10.8-9-19.4-4.6-5.9-6.2-14.3-4.6-22.4 3-1.2 6.3-2.4 9.6-3.6-4.3-10-9.7-15.4-13.9-15.2.8 1.8 1.5 3.7 1.9 5.6 1.1 6.1-8.1 7.8-9.2 1.7-.8-3.3-2.2-6.5-4.3-9.2-2.4-1.8-10.1-2.4-10.3-.4 2.3 2.8 4.3 5.8 5.8 9.1 2.4 5.8-6.3 9.4-8.7 3.6-1.2-2.8-4.2-8.5-8.1-9.6 0 0-8.6-1.4-9.7 2.8-.9 3.4 5.3 8.4 5.9 9 3.2 2.9 7 6.3 7 14.4v5.1l-6.5 2.4c-7.3 2.5-10 5.9-3.3 10.5 3.5 2.3 6.6 4.7 9.4 6.7 2 1.5 4.1 2.9 6.3 4.1 2.6 1.3 4.1 1.5 7 0l5.4-2.7 4.5 3.9c14 12.2 19.1 26.7 21.2 41.4zm37.9-8.3c-6.1 4.9-6.6 11.9-6.9 17.4-.2 5.2-2 10.2-5.2 14.2-2.8 3.7-10.4 11.7-16.7 8.1-2.9-1.6 0 10.4 2.8 11.3 3.8 1.2 11.2-4.4 12.5-5.8.8 4.7 2.3 9.3 4.2 13.6 3.8 7.6 3.4 19.1-4.5 22.1 1.7 4.8 9 7.8 12.5 4.9 1.7-1.4 2.9-6.2 4.3-8.9 5.4-10.8 14.3-10.5 23.1-7.9.8.3 3.6 10.6 2.6 21.1-1.3 12.6-3.9 19.3-8.2 21.3-3.7 1.7 18.1 6.1 18.1-11.1 0-2-.6-12.2-.7-14.6-.1-5.8 1.9-15.8 14.5-15.8 2.4 0 6.1 1.2 8.7 5.7 1.7 2.9 3.5 10.4 3.9 12.5 2 9.2 2.3 17.9-.1 20.5-1.7 1.8 14.3 1.3 11.3-13.3-.3-1.4-2.6-9.8-3.1-12.1-.8-3.1-.9-6.3-.2-9.4 1.3-5.2 6-8.7 11.3-8.6 3.8 0 8.3 2 11 8.6.9 2.3 4.1 18.8 8.5 21.4 5.4 3.2 16.3-1.8 12.2-2.9-2.2-.6-4.7-3.2-6-5.5-2-3.8-3.2-8-3.7-12.3-1-6.6-.5-13.1.5-16.1 1.9-5.9 4.6-7.5 9.2-7.5 2.8 0 5.8 2.7 8 3.5 6.2 2.5 10-10.9 7.1-9.6-4.3 1.9-16.3-1.4-14.8-13.8.7-5.3 3.1-6.4 4.8-17.4.3-1.9 6.8 4.5 13.8 3.8 3.7-.4 5.6-13.9 3.6-12.9-7.9 4.2-19.5-.6-18.8-11.4.5-6.4.6-12.9.2-19.3-.1-1.3 3.7.1 10.5.3 4.5.1 6.1-1.4 7.2-4.1s-.1-12.3-1.4-11c-4.6 4.6-11.9 3.4-15.1 1.4-4.4-2.8-6.3-4.9-6.3-10.7 0-6-.6-9.4-4.2-16.6 9-.6 11-.3 12.9-3.1 3.5-5.2-2.4-15.6-3-12.8-.9 4.6-9.5 7.1-12.7 7-10.9-.4-7.7-9.4-20.4-16.8 7.3-4.7 10.2-8.3 10.4-10.4.3-2.6-8.6-8.9-8.3-6.6.5 3.8-3.2 9-9.8 9.7-5.5.6-10.2-1.4-18-1.8-4.8-.1-9.6 0-14.4.4 0 0 6.5-9.6 5.2-12-.7-1.4-8.3-4-7.4-1.4.8 2.2-1.7 6.7-6 9.2-5 2.9-9 4-16.2 5.5-3.3.7-3.3 1.3-2.7 3.4.3 1.1.7 2.6 1.1 3.8 15.4-1.1 36-.6 38 7.5 7.3 0 15 1.2 17.5 3.4 5.7 4.9 6.2 13.4-5.2 22.1 3.1 16.1 8.5 18.5 3.3 30.6-4.4 10.2-14.7 14-24 15.8-4 .8-8.6 7.9-16.6 12.2-3.8 2.1-19.9 2-34.2 1.2zM698 263.9c.7 1.6 2 4.4 3.3 4.7 4.1.9 16.4 1.8 28.3 2.3 6 .2 21.4.4 23.9-.6 4-1.6 12.2-11.9 18.8-12.9 8.9-1.4 15.5-4.8 18.2-11.1 2-4.5 1.9-6.4 1.1-8.6-2.5-7.2-4.4-14.6-5.8-22.1 0 0 10.1-6.4 9.9-10.4-.1-2.3-1.3-2.5-4.7-3.2-2.9-.6-9.8-.6-13-.6-1.1-3.3-3.8-5.8-7.2-6.6-4.4-1-23.3-2.7-40 1-2.2.5-6.4 6.1-7.7 7.1-2 1.5-4.4 2.5-6.9 2.9-1.8.3-9.5.9-11.7 1.1-6.2.7-14.3 3.2-22.1 6.1-.1 5.1 1.8 10.1 5.2 13.9 0 0-.3 9.1.4 13.1 0 .7 1.2.9 1.6.9 2.6-.4 5.2-.5 7.8-.3 6.9.8 30 .7 30 .7V264l-29.4-.1zm149.9 276.8c-9 8.8-15.6 19-5.8 29.7 12.6 13.6 21.4 21.9 3.3 34.6-32.8 23.1-42.2 40.9-48.8 54.9 1.7.7 3.5 1.3 5.3 1.7 3.6.8 7.3 1.4 11 1.6 1.8.2 2.8-4.7 7.1-13.2 6.4-12.8 18.2-30.1 46.3-50.5 10.4-7.6 10-8.9 4.7-15.6-2.9-3.7-6.8-7.8-11.2-12.9-9-10.3-12.1-20.7-11.9-30.3zM735.7 413.1c2.9 4.8 6.7 9 11.1 12.4 12.4 9.4 39.2 35.5 39.4 63 14.6 1.4 20.4 5.6 20.4 5.6 5.1 3.6.2 10.5-5.4 7.7-10.4-5.3-26.8-3.7-31.6-3.3-22.5 2-25.8 17.2-25.8 28.2 0 12.6 9 21.8 21.4 29.9 6.3 4.1 12.6 7.4 17.4 10.2 2.6 1.5 5 3.2 7.2 5.1 1.7 1.6 5.3 5.2 5.3 10.6 0 18-45.9 45.3-55.9 45.3-10.8 0-15.8 6.2-17.5 8.3-2.7 3.5-5 10.9-4 17.1.6 3.9 2.5 7.2 7.6 7.8-.1-7.6 2.3-15 6.7-21.1 3.8-5 11.2.7 7.5 5.7-3 3.9-5.3 10.2-4.5 19 5.9 3.5 12.8 3.7 21.4.8-1-7.3 2.4-16.6 6.4-22.4 3.6-5.1 11.3.2 7.7 5.3-2.9 4.3-5 9.9-4.8 14.9 7.6 6.2 18.3 2.4 19.6 0 1.9-3.7 3.7-7.8 5.9-12.2 2.7-5.4 5.8-10.6 9.2-15.6 8-11.3 20-24 40.3-38.2 4.9-3.4 8.7-5.6 3.1-11.7-2.4-2.6-5-5.6-7.9-8.9-12.4-13.4-6.9-27.2.3-36.3 3.5-4.2 7.4-8.2 11.6-11.7 3.5-3.1 7-6 9.5-8.5 17.2-17.2 14.3-42.8-7.2-67.6-12.6-14.5-28.7-47.7-29.3-72.9-9.1-8-8.5-27.3-13.7-27.3-7.3 0-.3 13.5.5 20.6 2.8 24.9-22.5 26.7-29.9 18.1-4.3-5 7.1 1.1 2-22.6-.8-3.8-2.7-11.5-4.4-11.5-10.2 0-4.4 12.9-5.4 22.8-1 10.6-6.3 16.3-12.7 18.7-3.2 8-9.6 14.1-21.5 14.7zm9.5-13.7c-7.8-1.4-14.2-6.3-13.2-11.7.5-2.5 9.3 2.6 11.1-19.6.6-7.4-.7-13.3-1-13.4-12.1-2-7.6 14.3-18.4 18.3-15.2 5.6-24.6-9.1-24.5-19.7 8.7.5 9.9-6 7.1-11.4-.9-2.1-1.5-4.3-1.8-6.5-2.4 1.7-5.4 2.5-8.3 2.2-12.5-1.8-14.2-36-6.1-29.3 5 4.1 10.2 1.8 13.5-2.1-15.1-5.8-30.8-15.3-38.3-18.6-33.2-14.7-47.2-14.6-52.3-12.6-1.8.7-3.3 2.7-2.6 6.9 4.1-1.8 10.4-1.5 10.4-1.5 5.9.4 5.3 9.3-.6 8.9-14.3.1-17.5 9.5-17 14.9.3 2.8.7 5.2 5.2 4.8 4.1-8.3 10.3-10.8 10.3-10.8 5.4-2.6 9.2 5.5 3.8 8.1-2.6 1.4-6.8 4.9-6.1 9.6.1 2.4 2 4.2 4.4 4.4 4.2.6 8.4-.3 12-2.6l4.1-2.8s15.6 7.1 25.7 5.9l2.8 2.9c5.5 5.8 10.9 14.3 16.1 22.9s10.7 18.2 16.7 27.3c12.5 18.9 24 30 35.5 30 5.1-.1 8.9-1.8 11.5-4.5zm182.3-84.8c1.6-4.2 2.8-8.7 4.5-12.6 1.8-4.5 4.8-8.4 8.6-11.4-7.8-5.9-29.9-14.2-44-1.1-6.2 5.8-7.7 12.6-7.7 19.4 0 9.5 5.4 11.7 10.6 14.5-5.4 23.7-7.4 51.5 8.3 75.2 6.5 9.8 14.4 21.9 19.5 34.7s7.9 27.6 2.6 42.1c-7.1 19.5-27 32-54 29.2-.9 3.8-2.3 7.5-4.2 10.9 13 1.7 25-.1 30.4-1.8 36.6-11.6 47.4-51.7 31.9-85.3-3.1-6.4-6.5-12.6-10.3-18.6-3.8-6.1-7.5-11.6-9.8-15.5-7.2-11.9-12.1-25.3-11.3-44.8.5-8.5 2-16.9 4.6-25 15 .8 17.1-1.7 20.3-9.9zM500.1 837.2c34.2.2 68.3-3.4 101.8-10.6 28.9-6.2 53.2-14.3 75.5-21.5 44-14.2 83.5-26.5 135.4-14.3 9.3 2.3 9.3 2.3 10.8-4.6l21-94.4c1.2-5.6 1.2-5.6-5.7-7.2-61.5-13.2-112.1-4.2-163.7 9-27.2 6.9-54.2 14.9-82.5 21.1-29 6.4-59.4 10.9-92.5 10.9s-63.5-4.6-92.5-10.9c-28.3-6.2-55.3-14.1-82.5-21.1-51.6-13.2-102.3-22.2-163.7-9-7 1.6-7 1.6-5.7 7.2l21 94.4c1.5 6.9 1.5 6.9 10.8 4.6 51.9-12.2 91.4.1 135.4 14.3 22.3 7.2 46.6 15.3 75.5 21.5 33.3 7.2 67.4 10.8 101.6 10.6zM392.7 697.5c-105.3-59.3-142.5-192.8-83.1-298 15.6-27.6 36.9-51.5 62.7-70-3.6-.6-7.1-2-10.1-4.1-6.2 2.4-14 4.9-20.6 4.8-16.8 17.5-36.3 70.4-64.8 81.1-3.9 8.6-9.8 16.1-17.1 21.9-12.4 9.5-35.7 33.2-35.7 55.8 38.1 0 42.4 24.4 42.4 37.9 0 35.6-51.3 46.5-51.3 55.8 0 10.3 38.7 35.9 46.6 35.9 15.1 0 22.6 9 24.9 11.9 7.9 10.1 10.9 34.9-7.1 39.5 38.4 6.5 74.8 18.1 113.2 27.5zm326.1-190.6c0 79-42.5 151.8-111.3 190.6 38.3-9.4 74.8-21 113.4-27.5-18-4.5-15-29.4-7.1-39.5 2.3-2.9 9.7-11.9 24.9-11.9 7.9 0 46.6-25.7 46.6-35.9 0-9.3-51.3-20.2-51.3-55.8 0-13.5 4.3-37.9 42.4-37.9 0-22.6-23.3-46.4-35.7-55.8-7.4-5.8-13.3-13.3-17.2-21.9-28.5-10.8-48-63.6-64.8-81.1-6.5.1-14.4-2.4-20.6-4.8-3 2.1-6.5 3.5-10.1 4.1 57 41 90.9 107 90.8 177.4zm-417.2 0c0 109.6 88.8 198.4 198.4 198.4s198.5-88.8 198.5-198.5S609.7 308.4 500 308.4s-198.4 88.9-198.4 198.5zM637 248.8l-5.5 17.4c9.5 1.9 21.8 5.9 37.6 12.9 1.9.8 3.8 1.8 5.8 2.8-2.4-10.8-7.2-20.8-17.2-29.4-7.9 3.9-13.5 1.3-20.7-3.7zm-268.3 17.3l-5.5-17.4c-7.1 5-12.8 7.6-20.8 3.5-10 8.7-14.8 18.6-17.2 29.4 2-1 3.9-1.9 5.8-2.8 15.9-6.7 28.1-10.8 37.7-12.7zm252.1-66.8c-77.6-30.4-163.9-30.4-241.5 0-4.6 8.6-11 9.3-11 15.1 12.6 4.6 19.9 16.4 6.2 26.1l7.7 24.2c17 .5 18.3 12.1 16.2 21.5 6 3.6 9.6 15.2 6.9 23.4 59.9-28.7 129.5-28.7 189.3 0-2.7-8.2.9-19.8 6.9-23.4-2.1-9.3-.8-20.9 16.2-21.5l7.7-24.2c-13.7-9.7-6.4-21.6 6.2-26.1.2-5.8-6.1-6.4-10.8-15.1zm-242.1-14.1c78.2-29.4 164.5-29.4 242.7 0 4.3-4.6 12.9-6 18.7-3.4.9-7.6 21.8-6.3 25.9-.2 1.9-3.2 16.8-4.7 26.8 19.4 3.5-1 7-1.7 10.5-2.2 2.2-.2 9.6-.8 11.4-1.1 5-.8 7-7.2 12.9-9.5 2.5-.7 5.1-1.2 7.8-1.4-.8-2.9-2-7.9-1.4-10 1.8-6.1 12-6.5 16.8-8.1 5.4-1.9 11.9-3.7 8.5-9.3-6.4-10.4 22.2-2.9 25 1.8 1.6 2.6-1.3 7.8-1.3 7.8 2.5-.2 5-.1 7.5.3 9.4 1.5 16.7 4.5 12.9-7.5-2.5-7.9 30 2.8 24.9 16.8-1.5 4-6.1 7.1-6.1 7.1 2.4 1.8 4.4 4.2 5.7 6.9 2.3 4.3 11.2-.7 11.2-6.5 0-12 14.9 4.4 16 16 .4 4-.3 10.7-4.2 13.7-1.8 1.4-6.9 2-6.9 2s2.2 3.8 2 10.8c-.2 6 10.4 4.3 13.5-2.2 2.6-5.5 11.9 12.8 8.4 24.9-1.1 3.9-6 9.1-9.2 9.8-3.5.8-8.3-1.1-8.1.3.3 2.6.3 5.2 0 7.8-.6 8.6 7.9 9.8 14.5 3.5 5-4.8 8.1 29.3-5.5 31.6-8.1 1.4-9.2-2.8-9.5-1.2-.4 2-1 4-2 5.8-4.3 9.1 7.2 8.6 13 5.4 5.2-2.8 3.1 29.1-14.1 27.7-3.3-.3-5.6-3.8-8.4-3.8s-3 28.2 8 28.2c16 0-1.6 18-16.8 17.1 1.9 20.7 14.4 48.9 26.8 63.3 13.7 15.8 21.4 33.4 20.6 49.8 23.7 2.4 39.3-8.6 44.8-23.7 8.6-23.5-8.2-49.5-21.2-69.2-17.7-26.6-14.6-56.7-10.7-75-6.5-4.4-9.7-11.6-9.7-19.3 0-8.1 1.8-17.6 10.3-25.6 21.4-20 54-2.9 59.2 4.9 1.7 2.6 1 6.2-2.8 8.2-14.6 7.8-5.9 36.5-33.6 36.5-1.5 5.6-2.4 11.3-2.6 17.1-.7 17.6 3.7 29.4 10.1 40 4.7 7.7 14.5 21.7 20.6 34.9 17 36.7 5.9 83.3-37 96.9-7.1 2.2-22.3 4.3-38.3 1.5-1 1.2-2 2.3-3.2 3.5-1.4 1.4-3 2.8-4.7 4.3-3.2 10-2.6 21.7 7.9 33.9 18 20.9 26.5 26.2 5 41.6-41.5 29.8-44.6 52.3-50.2 61.2 8.8 1.3 17.7 3 27 5.2 4.4 1 13.5 3.5 10.5 16.8l-23.5 105c-3.5 15.5-15 11.7-20.6 10.3-100.9-26.7-149.6 45.5-314.7 45.5s-213.7-72.2-314.7-45.5c-5.5 1.5-17.1 5.3-20.6-10.3l-23.4-105c-3-13.3 6.1-15.8 10.5-16.8 9.2-2.2 18.2-3.9 27-5.2-5.7-8.9-8.7-31.4-50.2-61.2-21.5-15.4-13-20.8 5-41.6 10.5-12.2 11.1-23.9 7.9-33.9-1.8-1.5-3.4-3-4.7-4.3-1.1-1.1-2.2-2.3-3.2-3.5-16 2.8-31.2.8-38.3-1.5-42.9-13.6-54-60.2-37-96.9 6.1-13.1 15.9-27.2 20.6-34.9 6.4-10.6 10.8-22.4 10.1-40-.2-5.8-1.1-11.5-2.6-17.1-27.7 0-19-28.7-33.6-36.5-3.8-2-4.5-5.6-2.8-8.2 5.2-7.8 37.8-24.9 59.2-4.9 8.6 8 10.3 17.5 10.3 25.6 0 7.8-3.2 15-9.7 19.3 3.9 18.3 7 48.4-10.7 75-13 19.7-29.8 45.7-21.2 69.2 5.5 15.1 21.2 26.1 44.8 23.7-.8-16.4 6.9-34 20.6-49.8 12.4-14.4 24.9-42.5 26.8-63.3-15.1.9-32.8-17.1-16.8-17.1 11 0 10.7-28.2 8-28.2s-5.1 3.5-8.4 3.8c-17.2 1.5-19.3-30.5-14.1-27.7 5.8 3.2 17.3 3.7 13-5.4-.9-1.8-1.6-3.8-1.9-5.8-.3-1.6-1.4 2.6-9.5 1.2-13.7-2.3-10.5-36.4-5.5-31.6 6.5 6.3 15.1 5.1 14.4-3.5-.3-2.6-.3-5.2 0-7.8.2-1.3-4.7.5-8.1-.3-3.2-.7-8.1-5.9-9.2-9.8-3.5-12.1 5.8-30.4 8.4-24.9 3.1 6.6 13.7 8.3 13.5 2.2-.3-7 1.9-10.8 1.9-10.8s-5-.6-6.9-2c-3.8-2.9-4.5-9.6-4.1-13.7 1.1-11.5 16-28 16-16 0 5.9 8.9 10.8 11.2 6.5 1.4-2.7 3.3-5 5.7-6.9 0 0-4.7-3.1-6.1-7.1-5.1-14.1 27.4-24.7 24.9-16.8-3.8 12 3.5 9 12.9 7.5 2.5-.4 5-.5 7.5-.3 0 0-2.9-5.2-1.3-7.8 2.8-4.6 31.4-12.2 25-1.8-3.4 5.5 3.1 7.4 8.5 9.3 4.7 1.6 14.9 1.9 16.7 8.1.6 2.1-.6 7.1-1.4 10 2.6.3 5.2.7 7.8 1.4 5.9 2.3 7.9 8.7 12.9 9.5 1.8.3 9.3.8 11.4 1.1 3.5.5 7 1.2 10.4 2.2 10-24.1 24.9-22.6 26.8-19.4 4.1-6.1 25-7.4 25.9.2 6.4-2.6 15-1.2 19.3 3.4zm179.7 59.3l15.4 4.1 4-14.7c.9-3.5 2-7 3.2-10.7l-.3-.1c-3 3.3-5.5 6.2-8.5 9.3l-13.6 12-.2.1zm21.3 31.7l-12.4-3.3 3.9-14.6-27.8-7.4 2.2-8.4 33.7-29.9 16.3 4.4-9.4 35.1 7.6 2-2.6 9.7-7.6-2-3.9 14.4zm-66.9-21c6.7.4 10.7-7.1 11.4-21.4.7-14-2.3-21.8-9-22.1-6.1-.3-10.6 6.9-11.4 21-.9 14.5 2.8 22.1 9 22.5zm-.6 10c-15.7-.8-22.7-14.7-21.9-32.9 1-18.4 9.8-31.5 25.6-30.6 16.2.9 22.7 14.9 21.8 32.7-.9 18.6-9.2 31.6-25.5 30.8zm-56.8-50.5c-5.7.8-9 6.2-8.1 12.7.8 5.6 4.9 9.7 11.3 8.8 4.6-.6 7.5-3.1 8.8-6 .4-1 .5-2 .3-3-.9-6.9-4.7-13.6-12.3-12.5zm-9.9 55.4l-1.5-10.4c2.2-.1 4.3-.4 6.5-.9 4.6-.8 9-2.9 12.5-6 3.7-3.4 6-8.1 6.4-13.2l-.2-.1c-2.6 3.6-6.7 6-12.7 6.9-10.9 1.5-20.7-4.7-22.3-16.3-1.7-12 6.8-23.4 20.4-25.3 15.8-2.2 25.2 8.5 27.2 23 1.8 12.7-1 22.4-6.9 29.4-5.2 6.1-13 10.1-22.4 11.8-2.4.6-4.7.9-7 1.1zm-21.9 6l-14.5-47.4-.2.1-9.5 8.8-5.1-9 13.2-11.9 10.6-3.2 18 58.7-12.5 3.9zm-165-68.9c-.5 0-3.2 2.4-4.4 5.3 1.7-.4 5.9-1.7 9.7-2.9-1.4-1.5-3.3-2.3-5.3-2.4zm13.9 4.5s-19 7.5-22.4 4.4c-4-3.7 4.5-13.8 8-13.8 8.5-.1 14.3 9.3 14.4 9.4zm455.3 0s5.8-9.4 14.4-9.4c3.5 0 12 10.1 8 13.8-3.5 3-22.5-4.5-22.4-4.4zm13.8-4.5c-2 .2-3.9 1-5.3 2.3 3.8 1.2 8 2.5 9.7 2.9-1.2-2.9-4-5.3-4.4-5.2zm-4.8 562v-36c0-6.4-.2-11.8-.4-16.4h13.3l.7 7.8h.3c3.8-5.8 10.3-9.2 17.2-9 10.1 0 19.7 6.4 19.7 23.1v30.4h-15.4v-28.5c0-7.5-2.9-12.7-9.7-12.7-4.5.1-8.4 2.9-9.8 7.1-.4 1.3-.6 2.6-.6 4v30.1h-15.3zm-523.6.8l-2.5-72.1 15.3-.5 2.1 59.3 31.2-1.1.5 12.8-46.6 1.6zm104.3-11l-35.2-8.3c-1.2 7.5 5.1 12.8 13.2 14.7 5.1 1.3 10.3 1.6 15.5 1.1l-.2 10.6c-6.6 1-13.4.6-19.9-1-17.6-4.1-25.6-16.7-21.9-32.5 2.9-12.7 14.5-25.4 32.8-21.2 17.7 4.1 20.3 19.4 17.6 30.9-.5 1.8-1.1 3.8-1.9 5.7zm-32.9-18.5l21.9 5c.9-3.6.8-11.5-7.8-13.4-7.9-1.9-12.5 3.9-14.1 8.4zm49.2-8.2l15.7 5.7-.9 26.8c-.1 4.8-.5 8.9-1.1 13l.3.1c2.3-3.6 4.6-6.9 7.5-10.7l16.2-21.2 15.3 5.6-37.5 42-14.5-5.3-1-56zm100.5 60.3l-35.4-7c-1 7.6 5.5 12.6 13.7 14.2 5.1 1.1 10.4 1.3 15.5.6l.1 10.6c-6.6 1.2-13.4 1.1-19.9-.3-17.8-3.5-26.1-15.8-23-31.7 2.5-12.8 13.6-25.9 32-22.3 17.8 3.5 21 18.7 18.7 30.2-.3 1.9-.9 3.9-1.7 5.7zm-33.5-17.3l22 4.3c.7-3.6.4-11.5-8.3-13.2-7.8-1.5-12.2 4.5-13.7 8.9zm48.6 41.8l3.1-34.8c.7-7.8 1-12.8 1.1-17.4l13.1 1.2-.4 10.2h.4c3.4-7.7 10.3-10.6 15.9-10.1 1.1.1 2.3.3 3.4.6l-1.2 14.2c-1.5-.4-3-.7-4.5-.9-6.6-.6-11.2 2.8-12.8 8.1-.3 1.1-.5 2.3-.6 3.5l-2.3 26.6-15.2-1.2zm63.7-75.1l1.6 46.4h.2c1.2-2 2.6-4.3 4-6.2l11.8-16.7 18.7-.7-19.5 21.8 24.4 30.3-19.1.7-15.6-21.7-4.4 5.5.6 16.8-15.3.5-2.7-76.4 15.3-.3zm96 11.2l6.8 35.2c1.3 6.6 2.5 11.9 3.5 16l-13.1 2.5-2.2-7.7-.3.1c-1.4 3.8-5.3 10.5-15.3 12.4s-20-2.2-23.3-19l-5.8-29.9 15-2.9 5.3 27.3c1.6 8.2 5.3 12.6 11.9 11.3 4.2-.8 7.5-4.2 8.3-8.5.2-1.2.2-2.4-.1-3.6l-5.9-30.3 15.2-2.9zm23.7 42.6l-.2-11.4c5 1.2 10.2 1.1 15.1-.1 5.4-1.5 7.1-4.1 6.3-7-.8-3-3.1-3.8-9.9-4-11.5-.1-17.5-4.5-19.2-10.7-2.7-9.2 3.3-18.6 15.9-22.2 6-1.7 11.9-1.8 15.4-1.1l.2 10.9c-4.1-.8-8.3-.7-12.4.3-4.2 1.2-6.2 3.7-5.4 6.5s3.6 3.5 10.7 3.7c10.7.2 16.3 3.8 18.6 11.4 2.6 9.1-2.6 18.2-17.3 22.4-5.7 1.9-11.8 2.3-17.8 1.3zm91.7-45.6L689 757c1.9 7.4 9.8 9.6 18 8 5.1-.9 10.1-2.7 14.6-5.3l4.1 9.7c-5.7 3.6-12 6-18.6 7.2-17.8 3.5-30.1-4.9-33.2-20.8-2.5-12.8 2.9-29.1 21.3-32.7 17.8-3.5 26.4 9.5 28.7 21 .4 2 .6 4 .6 6.1zm-37.6-3.6l22-4.3c-.7-3.6-3.9-10.8-12.6-9.1-7.8 1.6-9.7 8.8-9.4 13.4zm-200-393.3h25.4c2.8 0 5.1-2.3 5.1-5.1s-2.3-5.1-5.1-5.1h-25.4v10.2zm0 24.7h26.2c3.2 0 5.8-2.6 5.8-5.8s-2.6-5.8-5.8-5.8h-26.2V378zm40.9-18.7c7.3 7.1 7.5 18.9.3 26.2-3.5 3.6-8.3 5.6-13.3 5.6h-42.5V330h41.8c9.8 0 17.8 8 17.8 17.9 0 4.2-1.4 8.2-4.1 11.4zm9.8 104.6H522l-4.9-10.2h-34.2l-4.9 10.2h-15.6l30.5-61.1H507l30.6 61.1zM500 418.4l-10.7 22.2h21.4L500 418.4zm20.7 58.5h17.5l-31 39.8V538h-14.5v-21.3l-31-39.8h17.5l20.7 27.8 20.8-27.8zm81.4 0V490h-40.7v10.2h39.2v13.1h-39.2V525h40.7v13h-55.2v-61l55.2-.1zm45.8 37.9H637V538h-14.5v-61h37.1c10.4.1 18.9 8.6 18.8 19 0 8.3-5.5 15.7-13.5 18l17.9 24h-17.4l-17.5-23.2zm10.2-24.8H637v11.6h21.1c3.2 0 5.8-2.6 5.8-5.8s-2.6-5.8-5.8-5.8zm-189.6 48h-15.6l-4.9-10.2h-34.2l-4.9 10.2h-15.6l30.5-61.1H438l30.5 61.1zm-37.6-45.4l-10.7 22.2h21.5l-10.8-22.2zm-92.2 7.7h25.4c2.8 0 5.1-2.3 5.1-5.1s-2.3-5.1-5.1-5.1h-25.4v10.2zm0 24.7h26.2c3.2 0 5.8-2.6 5.8-5.8s-2.6-5.8-5.8-5.8h-26.2V525zm40.9-18.7c7.3 7.1 7.5 18.9.3 26.2-3.5 3.6-8.3 5.6-13.3 5.6h-42.5V477H366c9.8 0 17.8 8 17.8 17.8 0 4.2-1.5 8.3-4.2 11.5zm148 44.9v13.1h-40.7v10.2h39.2v13.1h-39.2v11.6h40.7v13.1h-55.2v-61.1h55.2zm-10.2 94.4c0-3.2-2.6-5.8-5.8-5.8h-24.7v11.6h24.7c3.2 0 5.8-2.6 5.8-5.8zm-45 42.2v-61.1h40.8c10.5.1 18.9 8.7 18.7 19.1-.1 7.6-4.7 14.4-11.7 17.3l18.3 24.6H521l-17.5-23.2h-16.7v23.2l-14.4.1z"/></g></svg><view id="00000D" viewBox="120 40 40 40"/><svg id="kEbene_1" viewBox="0 0 40 40" width="40" height="40" x="120" y="40" xmlns="http://www.w3.org/2000/svg"><style>.kst0{fill:#fff}.st1{fill:#ffdd0b;stroke:#1d1d1b;stroke-width:16.79;stroke-miterlimit:10}.kst2{fill:#d40825}.kst3{fill:#1d1d1b}.kst4{fill:#ffdd0b}</style><path class="kst0" d="M2.9 1.3v6.9c.1 3.1.3 6.6 1.1 9.7 1.1 3.9 2.7 7.3 4.8 10.4 2.6 3.8 6.2 7.4 10.7 10.8l.4.3.4-.3c4.5-3.4 8.1-7 10.7-10.8 2.2-3.1 3.8-6.6 4.8-10.4.9-3.3 1.1-6.9 1.1-9.7V4.7 1.3h-34z"/><path class="kst2" d="M20 38.6c-4.7-3.6-8.1-7.2-10.5-10.7-2.4-3.5-3.8-7-4.7-10.2-.8-3-1-6.4-1.1-9.6-.1-2.2 0-4.3 0-6.1h32.8v6.1c-.1 3.2-.3 6.6-1.1 9.6-.9 3.2-2.3 6.7-4.7 10.2-2.6 3.5-6 7.1-10.7 10.7z"/><path class="kst0" d="M4.3 2.7c.1 8.7-1.9 21.7 15.7 35 17.6-13.4 15.6-26.4 15.7-35H4.3z"/><path class="kst2" d="M26.7 20.4l.4-.1c0 .1 0 .2.1.3.1.1.3.1.5 0 .1-.1.1-.2.1-.3 0-.1 0-.2-.1-.3-.1-.1-.1-.1-.2-.1h-.2l.1-.4c.1 0 .2 0 .3-.1.1-.1.1-.1.1-.2s-.1-.3-.2-.3-.1 0-.2.1-.1.2-.1.2l-.4-.1c0-.1.1-.2.1-.4.1-.1.2-.2.3-.2.1-.1.2-.1.4-.1s.4.1.5.2c.1.1.2.3.2.4 0 .2-.1.4-.3.5.1 0 .2.1.3.2.1.1.1.2.1.4s-.1.4-.2.5c-.3.3-.8.3-1.1 0-.4.2-.5 0-.5-.2zm-.8-.9c0-.2 0-.3-.1-.3-.1-.2-.2-.2-.3-.2-.1 0-.2 0-.2.1-.1.1-.1.2-.1.3 0 .2 0 .3.1.3.1.1.3.1.4 0 .1 0 .2-.1.2-.2zm-1.1 1h.5c0 .1 0 .1.1.2.1 0 .1.1.2.1s.2-.1.2-.1c.1-.1.1-.3.1-.5-.1.1-.3.2-.4.2-.2 0-.4-.1-.5-.2-.1-.1-.2-.3-.2-.6 0-.2.1-.4.2-.6.3-.3.8-.3 1.1 0 .2.2.2.5.2.9s-.1.8-.2 1c-.2.2-.4.3-.6.3-.2 0-.3-.1-.5-.2-.1-.2-.2-.3-.2-.5zm-10.9-.2c0 .1 0 .2.1.3.1.1.2.1.2.1.1 0 .2 0 .2-.1.1-.1.1-.2.1-.3 0-.1 0-.2-.1-.3-.1-.1-.2-.1-.2-.1-.1 0-.2 0-.3.1.1.1 0 .2 0 .3zm.1-1c0 .1 0 .2.1.2.1.1.3.1.4 0 .1-.1.1-.1.1-.2s-.1-.3-.3-.3c-.1 0-.2 0-.2.1-.1 0-.1.1-.1.2zm-.1.4c-.2-.1-.3-.3-.3-.5s.1-.3.2-.4c.1-.1.3-.2.5-.2s.4.1.5.2c.1.1.2.3.2.4 0 .1 0 .2-.1.3-.1.1-.1.2-.2.2.1 0 .2.1.3.2.1.1.1.2.1.4s-.1.4-.2.5c-.1.1-.3.2-.6.2-.2 0-.4-.1-.6-.2-.2-.1-.3-.3-.3-.6 0-.1 0-.3.1-.4.2.1.3 0 .4-.1zM12.8 21h-.5v-1.8c-.2.2-.4.3-.6.4v-.4c.1-.1.3-.1.4-.2.1-.1.2-.2.3-.4h.4V21zM28.6 4.1c-1.3-.5-2.6-.5-3.6.1-.9.5-1.5 1.4-1.5 2.8 0 .3-.1.6-.2.8-.4.7-1.1 1.4-2 1.4-.1-.7-.6-1.7-1.1-2.3.5 0 1.3.5 1.5.9.4-.4 1-1.5.8-2.4-.8 0-1.6-.2-2.4-.5 0 .5-.9 1.8-1.6 2.1.3.5.6 1.5.6 2.5-.5.4-1.1.5-1.6.5-.4-.6-.9-1.1-.9-1.8 0-.8.8-1.9 1.6-2.7l-.4-.5c-.5.2-1 .5-1.4.9-.5-.7-1.3-1.9-2.5-2.2-.3.1-.8.8-1.2 1.6-1.3.3-2.3 1.2-2.7 2-.4-.7-.8-1.1-.8-1.5 0-1.4 1.7-1.2 2.6-.8V4c-1.3-.5-2.6-.5-3.6.1-.9.5-1.5 1.4-1.5 2.8 0 .9-.6 1.6-1.7 2 .5.2 1.2.1 2.2-.2-.5.6-1 1-2.2 1.2.7.2 1.8.1 2.8-.2-.3.6-1.1 1.1-2.7 1.2 1.4.5 2.1.3 3.6-.1 2-.6 3.4 1.1 1 1.6-.6.1-1.3-.1-2-.4l-.7.8c.9.5 2.5.9 3.3.8 2.3 0 3.3-1.9 2.7-3.7-.4-1.2-1.4-1.9-2.3-2.5.8-1.1 3.6-2.3 4.6.2-.4 1.1-.6 2.2-.6 3 .1 1.5 1.6 2.9.6 3.6-.2.2-.8.4-1.3.6-2-.1-3.2-1.2-4.8-1.2-1.2-.1-2.1 0-2.7.9-.8 1.2-.1 3.3 1.8 3.3 0-.7.2-1.1.3-1.4-.6 0-1.8.1-1.8-.7 0-.4.4-.6.8-.6 2 0 3.8 2.6 6.2 2.8 0-1.2 1.8-2.6 3.1-1.6.7-1 .5-1.8.1-2.5.7-.8 1-1.7 1-2.6 0-.2 0-.4-.1-.6.4-.1 1-.2 1.3-.4v8.6c.4-.1.5-.1.9-.4V17c.4-.1.8-.1 1.3-.4V9.9c.8 0 1.9-.4 2.6-1.2-.2.8-.8 1.5-2 1.7.9.3 1.9-.1 2.7-.6-.2.6-1 1.5-2.6 1.7 1.4.5 2 0 3.4-.5 2-.6 3.2.9.9 1.5-.6.1-1.3-.1-2-.4l-.7.8c.9.5 2.5.9 3.3.8 2.2 0 3.2-1.8 2.8-3.6 2 .1 3.6 3.5 1.9 4.4-.7.4-1.3.2-1.9.1-1.5-.3-2.6-1-3.9-1-1.2-.1-2.1 0-2.7.9-.8 1.2-.1 3.3 1.8 3.3 0-.7.2-1.1.3-1.4-.6 0-1.8.1-1.8-.7 0-.4.4-.6.8-.6 2 0 3.8 2.6 6.2 2.8 0-1.2 1.8-2.6 3.1-1.6.7-1 .5-1.8.1-2.5.7-1 1.2-1.9 1.1-2.8-.1-1.4-1.3-1.8-1.3-3 0-.8.8-1.9 1.6-2.7l-.4-.5c-.5.2-1 .5-1.4.8-.5-.7-1.3-1.9-2.5-2.2-.3.1-.8.8-1.2 1.6-1.3.3-2.3 1.2-2.7 2-.5-.4-1.2-1.3-.5-2 .5-.5 1.7-.3 2.3 0l-.1-.9zm.8 5c-.5-.8-1.4-1.3-2-1.7C27.8 6.8 29 6 30 6c1.5 0 2.7 1.8 1.3 2.9-.3.3-.9.3-1.9.2z"/><path class="kst3" d="M20 36.9c-6.2-4.7-9.8-9.3-12-13.8 5.7-.2 9.4-1.8 12-3.8 3.1 2.1 7.2 3.9 12 3.8-2.2 4.5-5.8 9.1-12 13.8z"/><path class="kst4" d="M20 36.1c-5.6-4.2-8.7-8.3-10.8-12.3 4.2-.3 8-1.5 10.8-3.6 2.8 2.1 6.6 3.2 10.8 3.6-2.1 4-5.2 8-10.8 12.3z"/><path class="kst3" d="M17.9 31.3c.2 0 .4 0 .6-.1-.6-1.1.2-2.1 1.2-2.1-.8.7-.8 1.6-.2 2 .4 0 .5 0 .8-.1-.7-1 .1-1.9 1.1-2-.5.5-.7 1.4-.1 2h.9c-.4-1 .4-1.7 1.2-1.7-.5.4-.8 1.3-.3 1.8.3.1.5 0 1 .2.3.1.5.4.6.6-3.6-.4-4.1-.3-6.8.1-1.1.6-1.6.7-2.1.2-.1-.1 0-.5.4-.6 0-.2.2-.4.4-.4.4-.2.7.2 1.3.1zm-1.7-3.2c.2 0 .4-.1.6-.1-.7-1.1.1-2.2 1.2-2.2-.8.9-.7 1.6-.1 2.1.4 0 .8-.1 1.2-.1-.8-1 .1-2.1 1.2-2.2-.5.6-.9 1.5-.2 2.1h1.1c-.6-1.1.4-1.9 1.3-2-.5.5-.9 1.4-.3 2 .4 0 .8 0 1.1.1-.3-.7.1-1.4 1.1-1.5-.4.4-.6 1.1-.2 1.6.5.1 1.1.3 1.6.4.4.2.6.3.9.6-4-.6-8.4-.5-10.5 0-1.2.6-1.7.8-2.3.2-.1-.2 0-.6.4-.6 0-.5.4-.5.8-.5.4.3.7.2 1.1.1zm-1.3-2.9c.2 0 .7-.2.9-.2-.8-1.4.3-2.8 1.7-2.7-1 .9-1.1 2-.4 2.5.5 0 .8-.1 1.3-.1-.7-1.2.2-2.8 1.5-2.6-.7.7-1 1.9-.2 2.6h1.4c-.5-1.3.5-2.7 1.8-2.2-.7.2-1.3 1.6-.5 2.3.5 0 1 0 1.4.1-.3-1 .3-2.1 1.6-1.7-.6.4-1 1.1-.5 1.8.6.1 1.4.2 1.9.3.5.2 1 .6 1.2.8-5-.7-9.8-.6-13.1.1-1.4.7-2.2.9-2.9.2-.1-.2 0-.6.5-.7 0-.6.5-.6 1-.6.5.2.9.2 1.4.1z"/></svg><view id="00000E" viewBox="120 80 40 40"/><svg id="lEbene_1" viewBox="0 0 40 40" width="40" height="40" x="120" y="80" xmlns="http://www.w3.org/2000/svg"><style>.lst0{fill:#059858}.lst1{fill:#fff}</style><path class="lst0" d="M19.3.4L6.4 19.9l12.9 19.7 12.9-19.7L19.3.4z"/><path class="lst1" d="M19.3 1.5L7.1 19.9l12.2 18.5 12.2-18.5L19.3 1.5z"/><path class="lst0" d="M19.3 2.9l-11.2 17 11.2 17 11.1-17-11.1-17z"/><path class="lst1" d="M12.3 17.3c0-.9.1-2.2.7-3.3.4-.8 1.1-1.6 2.3-1.5.4 0 1.7.3 1.7 1.8 0 .7-.4 1.9-2.2 1.9 0 0-.2 1.8-.2 2.7 0 .8 0 4.6 1.4 7.5l3.3-7.3 3.1 7.4s1.3-3.3 1.3-6.1-.8-4.6-1.4-5.6c-.9-1.4-2.1-1.9-2.6-1.9 0 0-.6.6-1.5.5-1.1-.1-1.8-.9-1.8-1.9 0-.9.6-1.8 1.4-2.4.8-.6 2.2-.5 3.2-.2 1.5.5 2.8 2.1 3.4 3.3.6 1.1 1.3 3.4 1.3 6.4 0 2.5-.9 6.2-2 9.1-1.1 2.8-1.8 3.9-1.8 3.9L19.2 26l-2.7 5.5s-2.6-5.5-3.2-8c-.6-2.4-1-5.3-1-6.2z"/></svg><view id="00000F" viewBox="0 120 40 40"/><svg id="mLayer_1" viewBox="0 0 973.4 973.4" width="40" height="40" y="120" xmlns="http://www.w3.org/2000/svg"><style>.mst0{fill:#fff}.mst1{fill:#e30613}.mst2{fill:none;stroke:#e30613;stroke-width:75.68}</style><path class="mst0" d="M486.7 8C222.4 8 8 222.4 8 486.7s214.3 478.7 478.7 478.7 478.7-214.3 478.7-478.7S751.1 8 486.7 8z"/><path class="mst1" d="M486.7 973.4c-65.7 0-129.4-12.9-189.5-38.3-58-24.5-110-59.6-154.7-104.3-44.7-44.7-79.8-96.7-104.3-154.7C12.9 616.2 0 552.4 0 486.7s12.9-129.4 38.3-189.4c24.5-58 59.6-110 104.3-154.7 44.7-44.7 96.7-79.8 154.7-104.3C357.3 12.9 421 0 486.7 0s129.4 12.9 189.5 38.3c58 24.5 110 59.6 154.7 104.3 44.7 44.7 79.8 96.7 104.3 154.7 25.4 60 38.3 123.7 38.3 189.5s-12.9 129.4-38.3 189.4c-24.5 58-59.6 110-104.3 154.7s-96.7 79.8-154.7 104.3c-60 25.4-123.8 38.2-189.5 38.2zm0-957.4c-63.5 0-125.2 12.4-183.2 37-56 23.7-106.4 57.6-149.6 100.9-43.2 43.2-77.2 93.6-100.9 149.6-24.5 58-37 119.7-37 183.2s12.4 125.2 37 183.2c23.7 56 57.6 106.4 100.9 149.6 43.2 43.2 93.6 77.2 149.6 100.9 58 24.5 119.7 37 183.2 37s125.2-12.4 183.2-37c56-23.7 106.4-57.6 149.6-100.9 43.2-43.2 77.2-93.6 100.9-149.6 24.5-58 37-119.7 37-183.2s-12.4-125.2-37-183.2c-23.7-56-57.6-106.4-100.9-149.6C776.3 110.7 726 76.7 669.9 53c-58-24.5-119.6-37-183.2-37z"/><path class="mst2" d="M898.2 486.7c0 227.3-184.3 411.5-411.5 411.5S75.2 714 75.2 486.7 259.5 75.2 486.7 75.2s411.5 184.3 411.5 411.5z"/><path class="mst1" d="M671.6 506.7c15.8 6 54.8 24.6 119.4 26.8 43.6 1.5 60.8-25.6 46.5-30.3-5.7-1.9-130.2-37.1-130.2-37.1s-15.4-6-3.9-7.2 63.3-.7 85.3-9.8c27-11 31.7-35.4 25.4-35-54.2 2.8-105 1.8-108.2 1.5l-.9-.1s-6-2-.6-6.7c5.9-5.2 44.9-37.8 53.2-46 21.5-21.6 6.9-53.2 3.3-49.8-35.9 34.2-82.2 60.6-85 61.1s-2-5.9.2-10.6 14.5-18.8 18.4-33.6c10.5-39.2 7.8-63.9-14.3-73.3-4-1.7-5.5.5-10.7 12.7s-7.2 33.4-27 41.7c-10.1 4.2-28.8 21.5-29.1 28.4s3.9 17.7-1.5 21.4c-4.2 2.9-11.4-2.2-17.7 3s-24.6 23.7-31 28.5-19 12.5-27 8.1c-17.4-17.2-9-67.6-9-67.6 4.1.8 8.3.9 12.4.3 17.6-2.6 18.8-23.5 16.3-26.2-1.9 2.2-5.5 5.6-14.7 6.5-7.1.7-9-2.2-10.5-8.5-1.5-5.9-2.5-9.7.5-20.3s13.7-15.7 19.8-20.6 2.9-23.4 2.9-23.4c-1.6 3.5-3.9 6.7-6.7 9.5-5.8 5.5-13.9 3.9-31 2.9s-24.2-7.5-26.8-10.8-25.1-.9-31.5-.6-33.8 5.5-44 9.3-24.4 9.7-28.1 12.9-2.5 5.9-2.5 5.9l3.4 9.3s12.6-8.9 25.1-12.2 14 2.4 15.6 7.7c1.3 3.8 2.3 7.7 3 11.7-4.7 2-23.1 3.6-39.8 2.7-19.4-1-20.5-9.6-20.2-14.5.1-1.8-5.6.1-7.9 5-3.9 8.6-5 23.2 34.7 22.7 15.8-.2 30.5-6.1 35.1-7.8 3.1 10.5-.4 12.2-4.9 12.9-19.1 3.3-29-1.7-29-1.7s-2.7 8.6-.7 10.1c11.5 8.7 34.8 8.7 38.9 8.4s7.4-3 9.7-1.1 5.2 11.7 5.6 14.9-.6 5.5-10.2 5.2-13.3.1-12.9 2 10.8 9.9 12.6 11.8 11.7-8.5 11.7-8.5-.5 1.4.3 5.6 3.6 37-16.8 46.5c-7.9 4.4-20.6-3.3-27-8.1s-24.7-23.2-31-28.5-13.5-.1-17.7-3c-5.3-3.7-1.2-14.5-1.5-21.4s-19-24.2-29.1-28.4c-19.8-8.3-21.8-29.5-27-41.7s-6.7-14.4-10.7-12.7c-22.1 9.4-24.7 34.1-14.3 73.3 4 14.8 16.2 28.9 18.4 33.6s2.9 11.1.2 10.6-49.1-27-85-61.1c-3.6-3.4-18.2 28.2 3.3 49.8 8.2 8.3 47.3 40.8 53.2 46 5.4 4.7-.6 6.7-.6 6.7l-.9.1c-3.2.4-54 1.4-108.2-1.5-6.3-.3-1.6 24 25.4 35 22 9 73.8 8.5 85.3 9.8s-3.9 7.2-3.9 7.2-124.5 35.2-130.3 37.1c-14.4 4.7 2.9 31.8 46.5 30.3 64.7-2.3 103.6-20.8 119.4-26.8 15.8-6 6.4 5.1 3 7.4-23.4 16.5-92.3 63.3-124.9 84.2-4.7 3-5.3 6.3-.1 12 25.5 27.1 73.8-3.9 92.9-14.6 22.3-12.4 75.4-52.5 79.5-48.1 1.6 1.7-1.5 16.7-34.2 51.7 3.5 3.3 7.1 6.5 11 9.3 0 0-15.7 19-26.4 30.7-4.3 4.7-14.4 14.8-17.2 14.2s-16.9-15.8-21.6-16c-3-.2-9.5 4.5-14.4 1.8-2.9-1.7-11.9-.8-19.4 2.7s-6.1 21-4 13.2 16.9-7.5 24.3 1.1c2.4 2.7 9.5 8.1 14.1 9.1s6.8 2.5 5 3.8c-1.7 1.2-14.1 4.2-24.3 11.5-2.2 3.7-1 5-1.8 6.8-11.4 4-14 7.5-10.5 18.9.3 1.1.2 1.3 3.7 8.4 1.7-3.1.8-13.1 11.5-15.4 1.1-.2 3 1.3 5 1.3 4.4 0 20.5-9.3 23.3-12.9s2.2 2.1.3 5.5c-9 16.6-5.6 26.7-4.8 27 2.1.8 3.2-.8 4.5 2.4 5.5 16.2 21.8 25.9 19.2 23.1s-6.6-24.3-5-25.1 3 .3 5-.8 4.5-10.5 4.3-13.3c-.3-6.9-4-9-3.9-13.2s3-8.7 3-8.7 4.8 9.3 8.8 13.6c8.3 8.8 6.8 10.8 15.5 7.3 1.8-.7 13.3 18.3 13.3 18.3s4.2-10.1 2.3-17.4c-.8-3.2-4-4.7-6.2-7.5s4-6.4 1-10.9c-16.8-16-18.3-10.5-22.6-21-2.9-7 2.8-11.8 8.6-18.9 14.7-17.7 15.2-17.5 23.9-27.9 3.6 2.4 5.7 4.7 10.7 8.3 16.4-24 30.4-45.7 45.7-51.3s22.2 3.3 21.8 12.6c-.7 16.4-33.6 51.6-33.6 51.6-14.9 16.6-25.8 25.5-32 36.3-2.7 4.7-4.5 9.8-5.3 15.1-1 6.1.1 14.8 1.4 21.9 1.3 6.8 2.7 12.2 2.7 12.2s4.9-17.6 6-19.7c3.1-6 3.8 0 8.5 11.8s14.5 26.7 14.5 26.7l-.1-30.2c.5-7.8 1-18.3 4.5-10.5s14.9 24.7 14.9 24.7.2-6.2.6-13.6h-.1.1c.4-6.8 5.8-31.8 8.6-36.9h-.1.1c2.4-4.4 13-23 26-25s14 21.1 13.1 26c-1.7 9.5-5.2 20.4-7.1 24.3-1.2 2.5-11.4 21.6-12.7 25.2-13.8 38.5 15 61.8 15 60s3.4-28.4 7.8-34.8c2.6-3.8 6.2-6.3 8.9-2.5 3.8 5.3 11.9 23.2 23.5 35.6 11.6-12.3 19.8-30.3 23.6-35.6 2.7-3.8 6.3-1.3 8.9 2.5 4.4 6.4 7.8 33 7.8 34.8s28.8-21.5 15-60c-1.3-3.7-11.5-22.8-12.7-25.2-1.9-3.9-5.4-14.9-7.1-24.3-.9-5 .2-28 13.1-26s23.6 20.6 26 25h.2c2.8 5.1 8.1 30.1 8.6 36.9h.1-.1c.5 7.4.6 13.6.6 13.6s11.3-16.9 14.8-24.7 4 2.7 4.5 10.5l-.1 30.2s9.8-14.9 14.5-26.7 5.3-17.8 8.5-11.8c1.1 2.1 6 19.7 6 19.7s1.5-5.3 2.7-12.2c1.3-7.1 2.4-15.8 1.4-21.9-.8-5.3-2.6-10.5-5.3-15.1-6.2-10.8-17.1-19.7-32-36.3 0 0-32.8-35.3-33.6-51.6-.4-9.3 6.5-18.2 21.8-12.6s29.3 27.3 45.7 51.3c5-3.7 7.1-6 10.7-8.3 8.7 10.3 9.2 10.2 23.9 27.9 5.9 7.1 11.5 11.8 8.6 18.9-4.3 10.5-5.9 5-22.6 21-3 4.5 3.2 8.1 1 10.9s-5.4 4.3-6.2 7.5c-1.9 7.3 2.3 17.4 2.3 17.4s11.6-19 13.3-18.3c8.7 3.5 7.2 1.5 15.5-7.3 4-4.3 8.8-13.6 8.8-13.6s2.9 4.5 3 8.7-3.7 6.3-3.9 13.2c-.1 2.9 2.3 12.2 4.3 13.3s3.3 0 5 .8-2.3 22.3-5 25.1 13.6-6.9 19.2-23.1c1.4-3.2 2.5-1.7 4.5-2.4.8-.3 4.1-10.4-4.8-27-1.9-3.5-2.5-9.1.3-5.5s18.9 12.9 23.3 12.9c2 0 3.9-1.6 5-1.3 10.7 2.3 9.8 12.3 11.5 15.4 3.5-7.1 3.3-7.3 3.7-8.4 3.5-11.3.8-14.8-10.5-18.9-.8-1.8.3-3.2-1.8-6.8-10.2-7.3-22.6-10.3-24.3-11.5-1.9-1.3.4-2.8 5-3.8s11.7-6.4 14.1-9.1c7.4-8.6 22.3-8.9 24.3-1.1s3.4-9.7-4-13.2-16.5-4.4-19.4-2.7c-4.8 2.8-11.3-1.9-14.4-1.8-4.8.3-18.9 15.5-21.7 16s-12.8-9.5-17.2-14.2c-10.9-11.7-26.6-30.6-26.6-30.6 3.9-2.9 7.5-6 11-9.3-32.7-35-35.8-50-34.2-51.7 4.1-4.4 57.2 35.7 79.5 48.1 19.1 10.6 67.4 41.7 92.9 14.6 5.3-5.6 4.6-9-.1-12-32.6-20.9-101.5-67.8-124.9-84.2-3-2.5-12.4-13.6 3.4-7.5zM546.8 169.9c-.5 0-35.5 15-38.7 17.4-6.1-5.2-23.8-21-25.9-22.8v-.2l-.1.1-.1-.1v.2c-2 1.8-19.8 17.6-25.9 22.8-3.2-2.4-38.2-17.4-38.7-17.4 0 0 9.9 14.7 16 24.9 6.3 10.4 4.9 24.5 4.9 24.5h87.6s-1.4-14.1 4.9-24.5c6.1-10.2 16-24.9 16-24.9z"/><path class="mst0" d="M453.5 263.5c8.3-4.1 17.9-5 26.8-2.5l-22.6 18.3c0-.1-4-12.4-4.2-15.8zM552.5 469.3c20-3.5 46.1-10 73.7-58.3-26.1-4.9-30.5-18.1-30.5-18.1s14.2-3.7 34 12c1.1-33.6 20.7-39 20.7-39h.1s8.3 18.6-17 40.8c24.8 5.3 31 18.7 31 18.7s-13.2 4.8-33.4-12C601 468.2 568.4 480 552.5 480c.7-7.1-.1-8.9 0-10.7zM441.6 435.6c.6 19.7 2.7 39.3 6.3 58.6 7.1 37.1 18.5 61.1 27.2 75.1 3.3 5.5 7 10.6 11.1 15.5v.2l.1-.1.1.1v-.2c4.1-4.8 7.8-10 11.1-15.5 8.7-13.9 20.2-38 27.2-75.1 3.6-19.4 5.7-39 6.3-58.6-.3.3-89.1.3-89.4 0zM420.2 469.3c-20-3.5-46.1-10-73.7-58.3 26.1-4.9 30.5-18.1 30.5-18.1s-14.2-3.7-34 12c-1.1-33.6-20.7-39-20.7-39h-.1s-8.3 18.6 17 40.8c-24.8 5.3-31 18.7-31 18.7s13.2 4.7 33.4-12.1c30.1 54.8 62.7 66.6 78.6 66.6-.6-7 .1-8.8 0-10.6z"/><path class="mst1" d="M511 531.5v-11.7h-28.8v-22.3h25.7v-11.7h-25.7V467h25.5v-11.7h-42.8v76.2H511z"/></svg><view id="00000G" viewBox="40 120 40 40"/><svg viewBox="0 0 968 968" width="40" height="40" x="40" y="120" xmlns="http://www.w3.org/2000/svg"><defs><style>.ncls-1{fill:none}.ncls-2{fill:#0067b2}.ncls-3{fill:#fff}.ncls-4{fill:#db052c}.ncls-5{clip-path:url(#nclip-path)}</style><clipPath id="nclip-path" transform="translate(-16 -16)"><path class="ncls-1" d="M248.27 248.26h503.47v503.48H248.27z"/></clipPath></defs><g id="nRinge"><path class="ncls-2" d="M500 16C232.7 16 16 232.7 16 500s216.7 484 484 484 484-216.69 484-484S767.31 16 500 16z" transform="translate(-16 -16)"/><path class="ncls-3" d="M500 40.2C246.06 40.2 40.2 246.06 40.2 500S246.06 959.8 500 959.8 959.8 753.94 959.8 500 753.94 40.2 500 40.2z" transform="translate(-16 -16)"/><path class="ncls-4" d="M500 62C258.09 62 62 258.09 62 500s196.09 438 438 438 438-196.09 438-438S741.91 62 500 62zm0 711.48C349 773.46 226.54 651 226.54 500S349 226.54 500 226.54 773.46 349 773.46 500 651 773.46 500 773.46z" transform="translate(-16 -16)"/></g><g class="ncls-5" id="nRapport"><path class="ncls-2" d="M259.57 574.41a250.6 250.6 0 0 0 55.49 96.35V557.24l-64.13-93.68a250.73 250.73 0 0 0 8.64 110.85M389 664.3v-130l-73.37-107.19v-98.38a252.39 252.39 0 0 0-35.06 48.16l34.49 50.39v130l73.41 107.24v61.06a252.69 252.69 0 0 0 56.14 19.94zm74-152.85l73.41 107.24v130L463 641.4v-130l-73.4-107.19v-130L463 381.49zm74-22.9l-73.41-107.24v-130L537 358.6v130l73.4 107.24v130L537 618.51zm-111.4-229a250.67 250.67 0 0 0-97.19 56.25L389 404.38v130l73.41 107.24v107.29a252.18 252.18 0 0 0 209.15-64.73L611 595.61v-130l-73.44-107.19V251.09a250.67 250.67 0 0 0-112 8.48m259.39 313.15v-130l-73.41-107.2v-61.05a252.47 252.47 0 0 0-56.14-19.94L611 335.7v130l73.37 107.2v98.37a252.41 252.41 0 0 0 35.06-48.16zm55.48-147.13a250.72 250.72 0 0 0-55.48-96.35v113.52l64.12 93.68a250.65 250.65 0 0 0-8.64-110.85" transform="translate(-16 -16)"/></g><g id="nSchrift"><path class="ncls-3" d="M207.17 590.47l12.43 26.47-20.21 38.21c-3 5.68-5.68 10.33-5.68 10.33l.27.5s5.34.33 11.76.87l43.05 3.88 15.42 24.84-93 54.35-14.88-23.85 38.93-22.73c9.08-5.25 15.93-9 15.93-9l-.27-.5s-4.7-.35-14.51-1.79l-39.63-5.9-.27-.5 16.66-36.44c4.14-9 6.41-13.15 6.41-13.15l-.27-.5s-6.85 3.72-16.2 8.47l-40.28 20.25-11.93-25.43zM278.47 707.93L299.91 727l-43.06 51.24c-7.06 8.51-6.71 17.45 4 25.87s19.47 6.67 26.08-2.19l39.7-53.92 23.55 16.38-40.78 55.24c-18.69 25.38-42.9 20.38-63.83 3.85s-31.46-38.85-11.22-63zm42.9 34.87l-26.47 18.49-.45-.35 11.77-30.06zM366.76 773.73l28 10.22L410.59 838c3.43 11.69 4.82 17.88 4.82 17.88l.81.24s1.83-8 4.5-17.88l11.49-43 27.36 6.47-27.83 104.1-29-7-18-56.51c-3.5-11-5-17.92-5-17.92l-.81-.25s-2.4 8.45-5.45 17.6L358.8 885.6l-26.38-9.73zM576.42 867c.59 25.53-15.41 43.1-46 45.17-28.57 1.93-55.3-11-56.85-52.69-1.58-42.23 21.78-58 49.22-59.88 29.7-2 46.88 14.58 49.83 37.11l-28.85 2c-2.65-9.76-7.87-15.52-20.6-14.66-11.88.81-20.23 11.74-19.33 33.42 1 22.66 10.37 31.4 23.66 30.5s19.11-7.26 19.74-19zM582.82 792.51l26.76-10.32 15.18 36.38 33.4-15.22-17.5-35.35L666 754.6l47.77 96.6-25.34 13.42-18.91-38.42-34.95 15.93 16.59 39.47-26.76 10.33-41.52-99.29zM682.94 741.94l51.58-49.43 16.59 16.29-32.34 31 12.34 13.7 31.31-30 16.2 15.88-32.34 31 13.42 15 36.43-34.91 16.59 16.29L755 822.07zM747.4 677.23l14.8-25.87 56-6.46c12.11-1.4 18.44-1.73 18.44-1.73l.38-.76s-7.61-3.16-16.87-7.46l-40.46-18.6 11-25.87 97.91 45-11.79 27.42-58.75 8.23c-11.41 1.6-18.5 1.86-18.5 1.86l-.38.76s7.93 3.79 16.42 8.35l40.72 21.9-14 24.35zM131.16 320.52l21.62 8.55-17.27 47.85 20.19 6.68 16.16-44.79 21.09 8.36-15.68 43.45L215 402.9l-8.12 27.5-103.23-33.64zM263.16 249.39c18.63 16.88 21.85 40 3.22 63.59-17 21.57-43.27 31.91-77.2 6.73-33.48-24.83-29.06-54.2-11.31-76.66 18.8-23.8 42.78-25.8 61.38-12.55l-17.92 22.68c-8.75-4.93-17-4.37-25.13 6s-6.36 23.12 11.8 36.73c17.36 13 30.93 12.52 38.48 3 8.08-10.23 6.51-18.52-1.4-26.57zM334 127.41c19-8.8 37.68-10.7 45.89 8.77 6.74 15.93 2.47 22.9-5.86 29.88l.3.64c8.88-2.07 20.79-1.64 28.36 16.09 9.11 21.4-4.84 33.78-23.88 42.58L338.53 244l-48.27-96.35zm16.17 39.05c7.46-3.45 9.6-6.93 6.59-14.13-2.89-6.94-7.82-7.47-15-4.14l-16.08 7.43 9.09 18zm18.19 39.37c8.23-3.8 10.49-7 7-15.26-3.25-7.71-9-7.89-17.19-4.08l-13.89 6.42 9.8 19.52zM530 198.21l-30.59-.07-8.77-19.3-37 3.18-5.35 20.52-30.13 5.29L448 95.16l33.33-2.86zm-47.69-40.14l-9.2-21c-3.17-7.12-5.57-13.46-5.57-13.46h-.57s-1.28 6.65-3.19 14.21l-5.48 22.24zM557.24 166.59l-25-76.49 32.31 6.14 9.78 32.43c1.84 6.2 3.46 12.79 3.46 12.79l.55.12s4.2-5.32 8.45-10.2l22.35-25.46 32 7.81L586.61 173l-8.34 35.75-28.27-6.17zM662.55 123l67.83 37.24-11.81 20-41.86-23-8.37 16.42L707 194.94l-11.54 19.54L658 193.94l-9.19 17.91 40.75 22.37-11.81 20-64.1-35.2zM767.89 189.43l32.9 35.2c16.83 18 20.86 35.4.81 53-12.81 11.2-22.14 14.29-33.42 9.9L751 330.93l-20.32-24.85 15.74-35.46-9.39-10-25.31 25.21L690.9 266zm-14.8 55.15l11.13 11.91c6.19 6.63 11.4 6.8 18.32.72s6.71-11.7.52-18.33l-11.71-12.53zM795.05 430.19L785.22 402 817 355.56c6.8-9.88 10.78-15.06 10.78-15.06l-.33-.79s-7.37 3.67-16.69 7.84l-40.55 18.36-12.32-25.27 98.17-44.41 13 26.84-32.29 49.75C830.58 382.31 826 388 826 388l.32.79s8.06-3.5 17.07-6.93l43.21-16.39 9.18 26.57z" transform="translate(-16 -16)"/></g></svg><view id="00000P" viewBox="80 120 40 40"/><svg id="oEbene_1" viewBox="0 0 968 968" width="40" height="40" x="80" y="120" xmlns="http://www.w3.org/2000/svg"><style>.ost0{fill:#e30613}.ost1{fill:#fff}</style><path class="ost0" d="M484 24.1c253.3 0 459.9 206.6 459.9 459.9S737.3 943.9 484 943.9 24.1 737.3 24.1 484 230.7 24.1 484 24.1z"/><path class="ost1" d="M484 46.9c240.7 0 437 196.3 437 437S724.7 921 484 921 47 724.7 47 484 243.3 46.9 484 46.9z"/><path class="ost0" d="M484 74.9c225.3 0 409.1 183.8 409.1 409.1S709.3 893.1 484 893.1 74.9 709.3 74.9 484 258.7 74.9 484 74.9z"/><path class="ost1" d="M484 138.4c190.3 0 345.6 155.2 345.6 345.6S674.3 829.6 484 829.6 138.4 674.3 138.4 484 293.7 138.4 484 138.4z"/><path class="ost0" d="M484 176.5c169.3 0 307.5 138.1 307.5 307.5S653.3 791.4 484 791.4 176.5 653.3 176.5 484 314.6 176.5 484 176.5z"/><path class="ost1" d="M715.3 322.4l-85.6 107.1c2.9-28.5 2.9-69.4-55.5-107.2-20.6-13.3-60.3-24.2-90.2-24.3-33.8-.2-68.2 10.8-92.6 23.7-10.3 5.4-12.4 11.8-12.4 22.8V404c0 13.3 11.1 25.6 23.3 25.6h149.3c21.4-.9 32.9-10.6 43.1-28.1l-.1 131.5c-9.7-14.5-23.4-26.5-40-26.5H403.4c-11.8 0-24.5 10.5-24.5 26.2V609c0 52 59.2 104.6 105.1 129.2 14.9 8 10.1 9.3-4 10-93-1.4-174.7-51.2-220.7-125.3 20.2-6.9 39.3-25.6 39.7-49.3V380.8c0-21.9-14.1-35.3-35.2-42.7 47.4-71.3 128.4-118.4 220.1-118.4 77.5 0 147.4 33.7 195.8 87.1 7.9 9.7 17.1 17.1 35.6 15.6z"/><path class="ost1" d="M501.8 674l2.1-1c2.6 1.4 5.4 2.6 8.2 3.6 4.3 1.4 8.8 2.2 13.3 2.1 5 .1 10-.9 14.5-3.1 6.2-3.5 10.4-8 12.5-13.5 2.1-5.1 3.4-10.4 4.1-15.9-2.9 2.3-6.2 4.3-9.6 5.8-4.2 2-9.8 3-16.9 3.2-6.6 0-13.1-1.6-18.9-4.6-6.2-3.3-11.3-8.3-14.7-14.5-3.8-6.5-5.8-14.9-5.9-25.1-.1-7.8 1.7-15.5 5.4-22.5 3.6-6.6 9.1-12 15.8-15.6 7-3.8 15.5-5.7 25.7-5.8 5 0 10 .6 14.9 1.7 12.5 3.3 21.7 10.2 27.4 20.9 5.8 10.7 8.6 24.2 8.6 40.6-.1 23.6-5.5 41.4-16.2 53.2-10.6 11.8-25.7 17.7-45.3 17.7-4.4 0-8.8-.3-13.1-1-4-.6-8-1.4-12.2-2.4l-1-1.3 1.3-22.5zm54.1-55.9c.1-1.9 0-3.9-.2-5.8-.2-2.8-.4-4.9-.6-6.4-1.2-5.7-3.5-10-6.8-13-3.1-2.9-7.1-4.5-11.3-4.6-2.6 0-5.2.7-7.5 1.9-2.9 1.4-5.3 4.2-7.2 8.6-1.2 3.3-1.8 6.8-1.7 10.3.2 6.9 1.9 12.2 5.4 16 3.2 3.6 7.7 5.7 12.5 5.7 3.4.1 6.8-.9 9.7-2.7 2.2-1.4 4.1-3.3 5.6-5.5 1-1.3 1.7-2.9 2.1-4.5zM633.5 593.5l-1.5 18.1c2.2-.3 4.2-.5 6-.7 1.8-.2 3.6-.3 5.4-.3 14.3.2 25.5 4.2 33.6 12.1 8.1 7.8 12.2 18.2 12.4 31.2.1 6.4-1.3 13.2-4.5 20.5-3.1 7.2-8.8 13.5-16.9 18.6-8.1 5.2-19.6 7.9-34.5 8.1-5.6.1-11.2-.4-16.7-1.5-5.1-1.1-10.2-2.5-15.1-4.2l-1-1.5c.3-3.3.6-6.1.7-8.3.2-2.2.3-4.4.5-6.7.1-2.2.3-5 .5-8.3l1.7-.8c7.9 5.2 17.1 8 26.5 8 7.7-.1 13.8-2.2 18.3-6.1 4.5-4 6.8-9.2 6.9-15.6.1-5.8-2.3-11.4-6.6-15.3-4.4-4.1-10.9-6.3-19.6-6.4-4.9 0-9.7.6-14.4 2-3.5 1.1-6.9 2.5-10.2 4.1l-1.7-1c.6-8.5 1.2-15.7 1.7-21.6.5-5.9.8-11.2 1.1-15.8.3-4.7.6-9.4.8-14.3.2-4.8.5-10.4.8-16.8l1.3-1.5h72.6l1 1-1.7 22.9-1.3 1.1-46.1-1z"/></svg><view id="00000Z" viewBox="120 120 40 40"/><svg id="pEbene_1" viewBox="0 0 40 40" width="40" height="40" x="120" y="120" xmlns="http://www.w3.org/2000/svg"><style>.pst0{fill:#fff}.pst1{fill:#0f509c}.pst2{fill:#1d1d1b}.pst3{fill:none}</style><path class="pst0" d="M37.7 13.9c.1-.5.2-1.6.2-2.4 0-1.1-.2-2.1-.6-3.8-.4-1.6-1-3-1.3-3.8-.4-.9-1-1.1-1.5-1.4-.5-.2-2.1-.3-5.2-.4h-.6c-1.3 0-2.9.2-4.4.5-1.2.2-2.3.3-2.9.3h-.1c-1.4 0-3.1-.4-4.9-.7-1.6-.3-3.2-.6-4.8-.8-.5 0-1-.1-1.5-.1-2.4 0-4.7.5-5.7.7-.3-.2-.7-.5-1.4-.5-.3 0-.7.1-1.1.2-.8.4-1.4 1-1.4 1.8-.1.6.2 1.4.8 1.7.3.2.6.3.9.3.8 3.1 3.2 12.3 5.2 19.9-.1.1-.2.3-.3.4-.6.8-1.3 1.7-1.1 3.3.3 2 1.8 2.8 3.3 3.3 1 3.6 1.1 4.1 1.1 4.2.3.8.7 1.3 1.3 1.3H12c.2 0 .5-.1.7-.4.2-.3.2-.8 0-1.8-.1-.5-.3-.9-.4-1.3-.1-.4-.2-.7-.4-1.3.9.2 1.1.4 1.1 1.1 0 1 .2 1.8.6 2.2.3.3.5.3.7.3.6 0 1.2-.4 1.2-2.5 0-2.8-1.9-3.3-3.9-3.8-.2 0-.3-.1-.5-.1l-1-3.9c1.1-.7 2.8-.8 4.3-.9h.3c.9 0 1.9.2 2.9.5 1.2.3 2.5.6 3.9.6 1.5 0 2.3-.3 3.2-.6 1.1-.4 2.4-.9 5.3-1h.5c4.2 0 7.1 2.2 7.1 2.3.1.1.2.1.4.1h.2c.2-.1.4-.2.4-.4 0-.1.8-3.3.9-7.1.3-3.5-1.2-5.3-1.8-6z"/><path class="pst1" d="M10 3.3c-3.1.2-5.2.8-5.2.8 0 .1 1.7 2 2.7 4.3 1 2.3 1.8 5.6 1.9 5.6v.1h.1s4-1.1 6.7-.8l3.1.5c1.4.3 2.7.6 3.9.5.9-.1 2.1-.3 3.3-.5 1.7-.3 3.5-.7 5.3-.8 3-.1 4.3.5 4.3.5.1-.1.2-3.1-.5-5.6C35 5.5 34 4.3 34 4.2c-.1 0-2.5-.6-6-.2l-3 .4-3.7.3c-1.3 0-3-.3-4.9-.7-2.4-.3-4.7-.8-6.4-.7"/><path class="pst0" d="M9.2 15.4s.6 2.8.7 4.2c.1 1.3 0 4.9 0 4.9s2.6-1 4.5-1 5.2 1.3 7.4 1.1 3.8-1.6 7.9-1.5c4.1.1 7.4 1.5 7.4 1.5s.6-3.1.4-5.2-.8-3.7-1.7-4.2-2.7-.9-4.5-.8c-1.8.1-6.3 1.4-8.6 1.3s-4.6-1-7.8-1-5.7.7-5.7.7"/><path class="pst0" d="M37.4 25l-.4-.2s-3.3-1.4-7.3-1.5c-2.5 0-4.1.5-5.4.9-.8.3-1.6.5-2.5.6-1.3.1-3-.2-4.6-.6-1.1-.2-2.1-.5-2.9-.5-1.8-.1-4.3.9-4.4.9l-.4.2v-.5s.1-3.5 0-4.8c-.1-1.3-.7-4.1-.7-4.1l-.1-.3.3-.1c.1 0 2.6-.9 5.8-.9 1.8 0 3.3.3 4.7.6 1.1.2 2.1.4 3.1.4 1.4 0 3.5-.4 5.4-.8 1.3-.3 2.4-.5 3.2-.5 1.7-.1 3.5.2 4.7.8 1.3.7 1.7 2.8 1.9 4.5.2 2.1-.4 5.2-.4 5.3v.6zm-23.2-1.8h.2c.8 0 1.9.3 3 .5 1.5.3 3.2.7 4.4.6.8-.1 1.5-.3 2.3-.6 1.4-.4 3-1 5.6-1 3.4.1 6.2 1 7.2 1.4.1-.9.5-3.2.3-4.8-.2-2.1-.7-3.5-1.6-4-.8-.5-2.5-.9-4.3-.7-.7 0-1.8.3-3.1.5-1.9.4-3.9.8-5.4.8h-.2c-1.1 0-2.1-.2-3.2-.5-1.4-.3-2.8-.6-4.6-.6-2.5 0-4.6.5-5.3.7.2.7.6 2.8.7 3.9.1 1.1 0 3.4 0 4.4.9-.1 2.6-.6 4-.6z"/><path class="pst2" d="M4 2.8s3.9-1.1 7.4-.7 7 1.4 9.7 1.5c1.5 0 5.5-.9 7.7-.8 2.2.1 4.8.1 5.2.3s.9.4 1.2 1.1c.3.7.9 2 1.3 3.7.4 1.6.6 2.7.6 3.7s-.1 2.6-.1 2.6 2.2 1.7 2 5.5c-.1 3.8-.9 7-.9 7s-3.3-2.6-7.9-2.4c-5.5.2-5.4 1.6-8.5 1.6-2.7 0-5-1.2-7.2-1.1-1.8.1-3.7.4-5 1.3.5 2.1 1 3.7 1.2 4.7 2.4.7 4.2.7 4.2 3.4 0 2.9-1.4 2.1-1.3 0 0-1.5-1.1-1.6-2.6-1.9.5 1.9.6 2.2 1 3.6.4 1.5.1 1.4-.3 1.4-.3.1-.6-.2-.8-.8 0-.1-.5-1.9-1.2-4.5-1.6-.5-3-1.2-3.2-2.9-.2-1.7 1-2.6 1.5-3.5-2.1-8-4.8-18-5.5-20.6-.2-.1-.5-.1-.9-.3-.7-.4-.9-1.8.5-2.4 1.7-.5 1.9.5 1.9.5m4.6 24.5c-.7 1.1-.9 2.4.8 3.1l-.8-3.1zm0-4.8c.1-1.8-.1-4.5-.9-7.4-1.1-4-2.1-6.8-3.2-8.6.9 3.3 2.7 10.3 4.1 16m.6-7.1s.6 2.8.7 4.2c.1 1.3 0 4.9 0 4.9s2.6-1 4.5-1 5.2 1.3 7.4 1.1 3.8-1.6 7.9-1.5c4.1.1 7.4 1.5 7.4 1.5s.6-3.1.4-5.2-.8-3.7-1.7-4.2c-1-.5-2.7-.9-4.5-.8-1.8.1-6.3 1.4-8.6 1.3s-4.6-1-7.8-1-5.7.7-5.7.7m.2-1.4s4-1.1 6.7-.8 4.9 1.1 7 1c2-.1 5.5-1.2 8.6-1.3 3.1-.1 4.2.4 4.2.4s.1-2.9-.6-5.3c-.6-2.4-1.6-3.6-1.6-3.6s-2.4-.6-5.9-.2-4 .6-6.7.7c-2.8 0-8-1.7-11.1-1.5s-5.2.8-5.2.8S6.5 6 7.5 8.4 9.4 14 9.4 14"/><path class="pst3" d="M29.7 19.2c-.3 0-.5 0-.5.7 0 .8.1 1.1.4 1.1.3 0 .4-.4.5-1 .1-.5-.1-.9-.4-.8zM26.1 20.9c-.1.5-.1.7.1.7s.4-.2.3-.7c0-.6-.3-.5-.4 0zM15.7 18.6c0-.2 0-.4-.2-.4-.2.1-.1.1-.1.3 0 .2.1.5.2.4.1.1.1-.1.1-.3zM29.1 16.5c-.2-.1-.3 0-.3 0s-.1.4-.1.7c0 .7.3.9.3.9s.3-.1.3-.8 0-.7-.2-.8z"/><path class="pst1" d="M30.1 18.3s.2-.6.2-1.5c0-.7-.2-1.2-.6-1.4-.4-.2-.9 0-1.3.1s-1 .2-1 .2v.8s.5.7.7 2.1c.2 1.4.5 3.8.5 3.8.4.1.7.1 1.1.1.6-.1 1.9-.3 1.7-2.4-.2-1.8-1.3-1.8-1.3-1.8zm-1.1-.1s-.2-.1-.3-.9c0-.3.1-.7.1-.7s.2-.1.3 0c.2.1.1.2.1.8.1.6-.2.8-.2.8zm1.1 1.9c0 .5-.2 1-.5 1s-.4-.3-.4-1.1c0-.7.2-.7.5-.7s.5.2.4.8z"/><path class="pst1" d="M31.7 16.8c-.1-.3.1-.4.4-.4.3 0 .2.3.4.5s.1.4.4.4c.3-.1.3-.4.3-.8s-.3-1.2-1.1-1.2-1.5.3-1.4 1.3c.1 1.1.3 1.4.8 1.9.6.7 1.2 1.3 1.5 1.9.3.6.2 1-.1 1-.4-.1-.4-.2-.4-.5-.1-.5-.4-.6-.6-.5-.2.1-.4.4-.3 1 .2.7.4 1.1 1.2 1.2 1 0 1.5-.5 1.5-1.5-.1-.9-.7-1.6-1.4-2.4-.8-.9-1.1-1.4-1.2-1.9zM13.4 16.1c-.1-.6 0-.8-.5-.7-.4.1-.7.1-.6.6s.2.8.2 1.1.1.7-.3.7-.5.2-.6-.5-.1-.9-.2-1.2c-.1-.3-.1-.5-.5-.4-.4.1-.6.1-.6.7s.2 1.7.4 3c.3 1.3.5 2.6.7 3.1.2.5.3.6.6.5.3-.1.5 0 .4-.7-.1-.7-.3-1.8-.4-2.3-.1-.5-.3-1.2.2-1.3.5-.1.6-.1.8.4.1.5.4 2.2.5 2.7s.1.9.7.7c.6-.1.5-.1.3-.9-.2-.6-1-4.9-1.1-5.5zM18.8 18c.1-.3-.1-.7-.3-.7s-.4.3-.7.4-.4-.3-.6-.2-.4.4-.3.8.2.7.3 1.3.2 1.3.4 1.9c.1.6.2 1.1.5 1.4.3.4.7.5.7 0s-.1-.8-.2-1.3c-.2-.5-.4-.9-.5-1.7-.1-.7-.1-1.1.2-1.2.2 0 .4.1.4.4s-.1 1 .2.9.7 0 .3-.6c-.4-.6-.6-.7-.4-1.4zM16.7 20.6c-.2-.1-.3-.1-.4.2-.1.3 0 .7-.3.7s-.4-.2-.5-.6 0-.6.2-.7c.2-.1.6.1.7-.4 0-.5.1-1-.1-1.7s-.2-.9-.5-1.2c-.3-.2-.8-.2-1-.1s-.4.2-.4.8.1 1.6.1 2.3c.1.7.2 1.7.5 2.1.3.4.5.6.9.5.4 0 .7.1.9-.3s.2-.6.2-1c-.1-.1-.1-.5-.3-.6zm-1.4-2c0-.2 0-.3.1-.3.2-.1.2.2.2.4s0 .4-.1.4c-.1-.1-.2-.3-.2-.5zM27.2 19.8c-.2-.6-.3-1.3-.4-1.7 0-.3 0-.7-.7-.8-.7 0-.9 0-1.2.3-.2.3-.3.7-.3 1.1 0 .4 0 .8.3.8.4-.1.4-.3.4-.6.1-.3.1-.4.3-.4.2 0 .5.2.4.5-.1.2-.5.6-.8 1-.3.3-.5.9-.4 1.5s.3 1.4 1 1.3.8-.3 1.1-.3.5.2.6 0c.1-.2.1-.2.1-.5.1-.4-.2-1.5-.4-2.2zm-1 1.8c-.2 0-.3-.2-.1-.7.1-.5.5-.7.4 0 .1.5-.1.7-.3.7z"/><path class="pst1" d="M36.7 20.1c-.3-.1-.3.3-.4.6-.1.4-.4.8-.8-.1-.4-.7-.6-1.5-.6-2.4 0-1 .2-1.4.4-1.4s.2.1.3.3c.1.2.1.6.4.5.4-.1.4-.5.2-1.2s-.6-1.2-1.2-1.2-1.3.5-1.3 2.3c0 1.8.4 3 .9 3.9.4.9.7 1.6 1.4 1.6.6 0 1.1-.8 1.1-1.6.1-.8 0-1.2-.4-1.3zM24 18.9c-.2-.6-.2-.7-.7-.7h-.8s-.2-1.1-.3-1.5c-.1-.5-.2-.7-.6-.7-.3 0-.5.3-.4 1s.4 1.6.6 2.8.4 2.5.4 3c.1.4.1 1.1.6.9.5-.2.5-.7.4-1.2-.1-1.1-.2-1.5-.4-2.1-.2-.6-.1-1.1.1-1.1.2-.1.4.2.5.8.1.5.1 1.5.2 2.1.1.5.3 1.4.8 1.2.5-.2.4-.2.2-1.4-.3-1.3-.5-2.5-.6-3.1z"/><g><path class="pst1" d="M20.8 20.8c-.1-.5-.1-1-.2-1.5 0 0 .7-.3.7-.8-.1-.5-.9-.5-.9-.8s-.1-.7-.3-1.2-.3-.6-.4-.6-.3.3-.3.6.2 1.5.2 1.5-.6.2-.6.5c0 .5.6.6.6.6s.1.8.3 1.9.1 1.4.5 2 .4.8.9.8c.4 0 .7 0 .7-.2s-.5-.7-.7-1.4-.4-.6-.5-1.4z"/></g></svg><view id="000010" viewBox="160 0 40 40"/><svg id="qEbene_1" viewBox="0 0 40 40" width="40" height="40" x="160" xmlns="http://www.w3.org/2000/svg"><style>.qst0{fill:#ffdc00}.qst1{fill:#fff}.qst2{fill:#cc1719}.qst3{fill:#006139}.qst4{fill:#1d1d1b}</style><path class="qst0" d="M5 .3v25.1c0 8 6.4 14.4 14.4 14.4 8.8 0 16-7.1 16-16V.3H5zm30 23.5c0 8.6-7 15.5-15.5 15.5-7.7 0-14-6.3-14-14V.8H35v23z"/><path class="qst1" d="M20.2 38.5c7.8-.4 13.9-6.8 13.9-14.7V12.6H20.2v25.9zM6.3 1.5h27.9v9.8H6.3z"/><path class="qst0" d="M5.9 1.1v10.6H34.7V1.1H5.9zm.4 10.2V1.5h27.9v9.8H6.3z"/><path class="qst2" d="M5.5.7v24.6c0 7.7 6.3 14 14 14 8.6 0 15.5-7 15.5-15.5V.7H5.5zm29.1 23.1c0 8.3-6.8 15.1-15.1 15.1-7.5 0-13.6-6.1-13.6-13.6V12.2h28.7v11.6zm0-12H5.9V1.1h28.7v10.7z"/><path class="qst0" d="M34.4 12.2H5.9v13.2C5.9 32.9 12 39 19.5 39c8.3 0 15.1-6.8 15.1-15.1V12.2h-.2zm-.2 11.6c0 7.9-6.2 14.3-13.9 14.7h-.8c-7.3 0-13.2-5.9-13.2-13.2V12.6h27.8v11.2z"/><path class="qst2" d="M6.3 12.6v12.8c0 7.3 5.9 13.2 13.2 13.2h.8v-26h-14z"/><g id="qFCA"><path class="qst2" d="M16.4 8.4s1.3.3 4.5.1c0 0 1.5 0 1.5-1.2v-1h-1.8v.5s0 .3-.2.3h-2.7s-.5-.1-.6-.6V4.8s0-.4.5-.4c0 0 .8-.1 2.5 0 0 0 .6 0 .6.7h1.7v-1s-.1-1-1.3-1.1c0 0-2.9-.1-4.1 0 0 0-1.6 0-1.6 1.3v3c-.1-.1-.1 1 1 1.1zM10.8 6.7h4V5.3h-4v-1H15V2.9H9.1v5.8h1.7zM28.1 2.9h-2.7L22.2 9v1.2h1.4L25 7.5h3.5l1.3 2.7H32l-3.9-7.3zm-2.5 3.3l1-2h.3l1 2h-2.3zM9.1 8.9h4.4v1.3H9.1z"/><path class="qst3" d="M13.5 8.9h4.4v1.3h-4.4z"/><path class="qst1" d="M17.9 8.9h4.4v1.3h-4.4z"/><path class="qst2" d="M22.1 9v1H18V9h4.1m.1-.1h-4.4v1.3h4.4V8.9z"/></g><g id="q_x31_907"><path class="qst1" d="M15.8 36.3v-.2l.3-.1v-1.3l-.3-.1v-.2h1.1v.2l-.4.1V36l.4.1v.2zM18.6 34.4c-.5 0-.9.4-.9.9 0 .6.4.9.8.9.1 0 .3-.1.4-.1-.2.4-.5.7-1 .9l.1.2c1-.3 1.5-1.1 1.5-1.8 0-.5-.3-1-.9-1zm.4 1.4c-.1 0-.3.1-.5.1-.3 0-.4-.3-.5-.7 0-.4.2-.6.4-.6.3 0 .5.3.5.7.2.3.2.4.1.5z"/><path class="qst2" d="M21.7 34.3c-.6 0-1 .4-1 1s.5 1 1 1c.6 0 1-.4 1-1 .1-.5-.4-1-1-1zm0 1.7c-.4 0-.6-.3-.6-.7 0-.4.2-.7.6-.7.4 0 .6.3.6.7 0 .4-.2.7-.6.7zM23.6 37.1h-.4c.1-.6.5-1.5 1-2.4H23v-.3h1.7v.3c-.3.6-.9 1.7-1.1 2.4z"/></g><g id="qZirbelnuss"><path id="qpath2556" class="qst4" d="M25.6 27.1L24 25.6c-.8.1-1.5.2-2.3.3v-1.2c1.4-.1 2.1-.5 2.7-1.1.7-.7 1.1-1.6 1.1-2.9 0-2.2-1.3-4.3-2.4-5.4-1-1.1-2.1-1.4-2.7-1.5-.6.1-1.7.4-2.7 1.5-1.1 1.1-2.4 3.2-2.4 5.4 0 1.3.3 2.2 1.1 2.9.6.6 1.3 1 2.7 1.1v1.2c-.8-.1-1.6-.2-2.3-.3l-1.7 1.5.7.8c-.1.2-.1.3-.1.5 0 .5.4 1 .9 1 .2 0 .4-.1.6-.3.1-.1.1-.2.1-.3.4.9.7 2.3.8 4.4v.2h4.6v-.2c.1-2.1.4-3.5.8-4.4 0 .1.1.2.1.3.2.2.5.3.6.3.5 0 .9-.4.9-1 0-.2 0-.4-.1-.5l.6-.8"/><path id="qpath2558" class="qst3" d="M20.5 24.4l1-.6-1.3-.8-1.3.8 1 .6h.6"/><path id="qpath2560" class="qst3" d="M22.1 16.3l1.3.8.4-.2c-.3-.4-.5-.8-.8-1.1l-.9.5"/><path id="qpath2562" class="qst3" d="M17.1 23l-.6.4c.4.3.7.6 1.3.7l.6-.4-1.3-.7"/><path id="qpath2564" class="qst3" d="M18.2 24.2c.3.1.7.1 1.1.1l-.7-.3-.4.2"/><path id="qpath2566" class="qst3" d="M21.1 24.4c.4 0 .8-.1 1.1-.1l-.4-.3-.7.4"/><path id="qpath2568" class="qst3" d="M24.2 23.2c.3-.3.5-.6.6-1l-1.1.7.5.3"/><path id="qpath2570" class="qst3" d="M25 19.9c-.1-.5-.2-.9-.3-1.3l-.9.6 1.2.7"/><path id="qpath2572" class="qst3" d="M25 20.2l-1.3.8 1.3.8c.1-.3.1-.7.1-1-.1-.2-.1-.4-.1-.6"/><path id="qpath2574" class="qst3" d="M22.1 23.8l.6.4c.6-.2 1-.4 1.3-.7l-.6-.5-1.3.8"/><path id="qpath2576" class="qst3" d="M15.6 22.2c.1.4.3.7.6 1l.5-.3-1.1-.7"/><path id="qpath2578" class="qst3" d="M21.3 14.5c-.4-.2-.8-.3-1.1-.4-.3.1-.7.2-1.1.4l1.1.7 1.1-.7"/><path id="qpath2580" class="qst3" d="M19.9 15.4l-1.1-.7c-.3.2-.7.5-1.1.8l.9.6 1.3-.7"/><path id="qpath2582" class="qst3" d="M21.8 16.1l.9-.6c-.4-.4-.7-.6-1.1-.8l-1.1.7 1.3.7"/><path id="qpath2584" class="qst3" d="M18.4 16.3l-.9-.5c-.3.3-.6.7-.8 1.1l.4.2 1.3-.8"/><path id="qpath2586" class="qst3" d="M15.5 20.2c0 .2-.1.3-.1.5 0 .4 0 .7.1 1l1.3-.8-1.3-.7"/><path id="qpath2588" class="qst3" d="M15.8 18.6c-.2.4-.3.9-.3 1.3l1.3-.8-1-.5"/><path id="qpath2590" class="qst3" d="M16.5 17.1c-.1.1-.2.3-.2.4l.5-.3-.3-.1"/><path id="qpath2592" class="qst3" d="M17.1 18.9l1.3-.8-1.3-.8-1 .6c0 .1-.1.2-.1.3l1.1.7"/><path id="qpath2594" class="qst3" d="M18.9 20l1.3.8 1.3-.8-1.3-.8-1.3.8"/><path id="qpath2596" class="qst3" d="M17.1 21.2l-1.3.8 1.3.8 1.3-.8-1.3-.8"/><path id="qpath2598" class="qst3" d="M17.4 22.9l1.3.8 1.3-.8-1.3-.8-1.3.8"/><path id="qpath2600" class="qst3" d="M18.4 20l-1.3-.8-1.3.8 1.3.8 1.3-.8"/><path id="qpath2602" class="qst3" d="M19.9 17.2l-1.3-.8-1.3.8 1.3.8 1.3-.8"/><path id="qpath2604" class="qst3" d="M19.9 19.1l-1.3-.8-1.3.8 1.3.8 1.3-.8"/><path id="qpath2606" class="qst3" d="M20.2 21.2l-1.3.8 1.3.8 1.3-.8-1.3-.8"/><path id="qpath2608" class="qst3" d="M20.5 22.9l1.3.8 1.3-.8-1.3-.8-1.3.8"/><path id="qpath2610" class="qst3" d="M20.5 19.1l1.3.8 1.3-.8-1.3-.8-1.3.8"/><path id="qpath2612" class="qst3" d="M23.4 20.8l1.3-.8-1.3-.8-1.3.8 1.3.8"/><path id="qpath2614" class="qst3" d="M22.1 21.9l1.3.8 1.3-.8-1.3-.8-1.3.8"/><path id="qpath2616" class="qst3" d="M20.5 17.2l1.3.8 1.3-.8-1.3-.8-1.3.8"/><path id="qpath2618" class="qst3" d="M21.5 16.3l-1.3-.8-1.3.8 1.3.8 1.3-.8"/><path id="qpath2620" class="qst3" d="M24.1 17.5c-.1-.1-.2-.3-.2-.4l-.2.1.4.3"/><path id="qpath2622" class="qst3" d="M23.4 17.4l-1.3.8 1.3.8 1.1-.7c0-.1-.1-.2-.1-.3l-1-.6"/><path id="qpath2624" class="qst3" d="M17.4 21l1.3.8L20 21l-1.3-.8-1.3.8"/><path id="qpath2626" class="qst3" d="M20.2 17.4l-1.3.8 1.3.8 1.3-.8-1.3-.8"/><path id="qpath2628" class="qst3" d="M23.1 21l-1.3-.8-1.3.8 1.3.8 1.3-.8"/><path id="qpath2630" class="qst0" d="M17.3 27h1.5v-.8c-.8-.1-1.5-.1-2.2-.3-.5.5-1 1-1.3 1.2l.4.5c.3-.4.9-.6 1.6-.6"/><path id="qpath2632" class="qst0" d="M23.9 25.9c-.7.1-1.5.2-2.2.3v.8h1.4c.8 0 1.4.2 1.7.6l.4-.5c-.3-.2-.8-.7-1.3-1.2"/><path id="qpath2634" class="qst0" d="M20.2 27h-1.1v-2.3h2.2V27h-1.1"/><path id="qpath2636" class="qst0" d="M17 27.3c-.8.1-1.3.5-1.3 1.1 0 .4.3.7.6.7.1 0 .3 0 .4-.2.1-.1.1-.3.1-.6l.3-.1c.6.8.9 2 1.1 4L19 30c-.6-1.3-1.3-2.4-2-2.7"/><path id="qpath2638" class="qst0" d="M19.2 29.7l1-2.4h-2.6c.5.4 1 1.2 1.6 2.4"/><path id="qpath2640" class="qst0" d="M22.9 27.3h-2.6l1 2.4c.5-1.2 1.1-2 1.6-2.4"/><path id="qpath2642" class="qst0" d="M19.3 30c.3.7.6 1.4.9 2.2.3-.9.6-1.6.9-2.2-.4-1-.8-1.9-.9-2.1-.1.2-.4 1.1-.9 2.1"/><path id="qpath2644" class="qst0" d="M19.2 30.4c-.4.9-.8 1.8-1 2.4v.2h2l-.1-.3c-.3-.7-.6-1.5-.9-2.3"/><path id="qpath2646" class="qst0" d="M23.5 27.3c-.7.4-1.4 1.5-2 2.8l.9 2.2c.2-2 .5-3.3 1.1-4l.3.1c-.1.3 0 .5.1.6h.2c.4 0 .6-.3.6-.7.1-.5-.4-.9-1.2-1"/><path id="qpath2648" class="qst0" d="M20.4 32.8l-.1.3h2v-.2c-.2-.6-.6-1.5-1-2.4-.4.7-.7 1.5-.9 2.3"/></g></svg><view id="000017" viewBox="160 40 40 40"/><svg id="rEbene_1" viewBox="0 0 40 40" width="40" height="40" x="160" y="40" xmlns="http://www.w3.org/2000/svg"><style>.rst0{fill:#fff}.rst1{fill:#001f47}.rst2{fill:#dadada}.rst3{fill:#dd0741}</style><path class="rst0" d="M29.7 8.7v6.1c.3.1.6.3.9.4v-.1c0-.9.3-.8.9-1.1.2-.1.2-.4.5-.4s1 .1 1.3.2c.2.1.2.2.3.4.1.2.4.3.5.5.1.4 0 .9-.4 1.1-.1.1-.8 0-.8 0v.7s.1 0 .2.1c1.1.3 7 2.1 7.1 2.4v.1c-.1 0-3.9-.8-4.6-1-.8-.1-1.4-.3-2.4-.4v.1c0 .3-.1.3-.3.4v.1c.3.1 1.4.2 1.6.4.3.2.9 0 1.3.5.1.2.1.8 0 .9-.2.2-.4.1-.6.2-.1 0-.2.2-.3.2-.1.1-.3 0-.4 0-.3 0-.4-.3-.6-.4-.1-.1-.2 0-.4-.1-.2 0-.3-.3-.5-.3h-.4c-.6.3-2 0-2.6-.4V23c0 .4-.1.9-.4 1.3-1.8 3.1-5.6 5-9.2 5h-.1c-3.6 0-7.4-1.8-9.2-4.9-.2-.4-.4-.8-.4-1.3v-3.7c-.6.4-2.1.7-2.6.4-.1-.1-.3-.1-.4 0-.2.1-.3.3-.5.3-.1 0-.2 0-.4.1-.2.2-.3.4-.6.4h-.4c-.1-.1-.2-.2-.3-.2-.2 0-.4.1-.6-.2-.1-.1-.1-.8 0-.9.4-.6 1-.4 1.3-.5.2-.2 1.3-.3 1.6-.4v-.1c-.3-.1-.3-.1-.3-.4v-.1c-1 .1-1.6.3-2.4.4-.7.1-4.4 1-4.6 1 0 0-.1 0 0-.1.1-.3 6-2.1 7.1-2.4.1 0 .2-.1.2-.1v-.2-.5H7c-.4-.2-.6-.7-.4-1.1.1-.2.4-.3.5-.5-.3-.3-.3-.4-.1-.5.3-.1 1-.3 1.3-.2.3 0 .3.3.5.4.6.3.9.1.9 1.1v.1c.2-.1.6-.3.9-.4V8.7h19.1z"/><path class="rst1" d="M20.4 23.2l.3 3.1h.4l-.3-3.1h-.4zm-2.5-.5l-1 3 1 .3.3-1h-.4l-.2.6-.3-.1.9-2.6-.3-.2zm1.1.7l-.3 2.5c0 .2.1.4.3.4l.7.1V26l-.7-.1.1-1 .5.1v-.4l-.5-.1.1-1 .6.1v-.4l-.7-.1c.1 0-.1.1-.1.3zm5.1-1.9l-.3.3L26 24l.3-.3-2.2-2.2zm-1.8 1.6c0-.1-.2-.2-.3-.2h-.1l-.6.2.9 3 .3-.1-.4-1.3.3-.1c.2-.1.3-.2.2-.4l-.3-1.1zm-.3 1.2l-.3-1 .3-.1.3 1-.3.1zm5.2-2.5l-1.1-.7-.3.4.3.2.1-.1.9.6-.2.2-2.1-1.3.2-.2.4.3.2-.3-.3-.2c-.2-.2-.5-.1-.7.1s-.1.5.1.7l1.9 1.2c.2.2.5.1.7-.1.2-.4.1-.7-.1-.8zm-3 2.3l.3.5-.2.1-.8-2.4-.2-.3-.9.5.5.9.3-.2-.2-.5.2-.1.8 2.4.2.3.9-.5-.5-.9-.4.2z"/><path class="rst1" d="M11.9 24c1.9 2.8 4.9 4.1 8.2 4.1s6.4-1.4 8.2-4.1c.3-.5.4-.8.4-1.8v-2.7h-.5v2.7c0 1-.1 1.2-.3 1.6-1.7 2.5-4.6 3.9-7.8 3.9s-6.1-1.4-7.8-3.9c-.2-.4-.3-.6-.3-1.6v-2.7h-.5v2.7c0 1 .1 1.3.4 1.8zM11.3 14.4V9.5h17.5v4.9l.3.1V9.2h-18v5.3z"/><path class="rst1" d="M11.5 9.6v4.7l.5-.2v-4h16.2v4l.5.2V9.6zM28.8 19.5v2.7c0 1-.1 1.4-.4 1.9-1.9 2.8-5 4.2-8.3 4.2s-6.4-1.4-8.3-4.2c-.3-.5-.4-.8-.4-1.9v-2.7h-.3v2.7c0 1.1.1 1.5.5 2 1.9 2.9 5.1 4.3 8.5 4.3s6.6-1.4 8.5-4.3c.3-.5.5-.9.5-2v-2.7h-.3z"/><path class="rst1" d="M20.1 11.9c.6 0 1.2.1 1.7.3-.1.2-.1.4-.3.6-1-.1-2 0-2 0l-.9-.7c.5-.1 1-.2 1.5-.2z"/><path class="rst2" d="M24.2 18.6c-.4-.1-.7-.3-1-.4-.1.1-.2.1-.3.1-.4.5-.9.8-1.4 1.1-1.3.7-2.9.7-4.3.1-.3-.1-.6-.3-.8-.5.8 1.1 2.1 1.8 3.5 1.9h.2c.9 0 1.7-.2 2.5-.7.6-.2 1.2-.8 1.6-1.6 0 .1 0 0 0 0z"/><path class="rst1" d="M21.8 15.8c.2.5.5 1 .7 1.4.3-.4.3-.7.5-1.4.1-.3.4-.6.7-.9-.4-.2-.7-.4-1.1-.6-.4.7-.8 1.5-.8 1.5zM16.9 13.1c-.4.4-.8.8-1 1.3.1 0 .1.1.2.1l.1-.1c.2-.4.5-.8.7-1.3zM19.8 15.8s-.6-.9-1.2-1.6c0 0-1.3.6-1.7.8v.4c.3.5.4 1 .8 1.7.1.1.2.1.2.2.2.1.5.1.9.2-.1.2.7-1.1 1-1.7zM19.7 19.3l2-.1.4 1.1c-.8.4-1.7.7-1.7.7-1-.2-1.5-.6-1.5-.6l.8-1.1zM16.4 18.5c-.2.1-.3.1-.4.2.2.3.3.5.6.8.2.2.4.4.7.6l.1-.1c-.1-.1-.7-.9-1-1.5z"/><path class="rst3" d="M5.2 19.2c-.2 0-.2.3-.2.5.1 0 .2 0 .3-.1 0-.1.1-.2.1-.3-.1 0-.1-.1-.2-.1zm22.4-1c-.1 0-.2.1-.4 0-.1 0-.3-.1-.4.1 0 .1-.1.2-.1.3 0 .1.1.1.1.1.1 0 .2.1.2 0 .1-.1.1-.3.2-.3s.1.1.2.1.2-.1.2-.1c.1 0 .1-.1 0-.2.1.1.1 0 0 0zm4.1-2.4s.1.1 0 .2-.8 0-.8.1.4.2.5.3c.1.1.3.1.4 0 .2-.1.3-.3.2-.5 0-.1-.1-.3-.2-.4 0-.1-.5-.4-.3-.4.1 0 .3 0 .4.1.3.1.5.1.8.2.2 0 .4 0 .5-.2.1-.1.1-.2 0-.3 0-.1-.2-.1-.3-.2-.1 0 0 .1-.1.2h-.2c-.1-.2.2-.1.2-.2s-.1-.2 0-.3c0 0 0-.1-.1-.1s-.8-.2-.9-.2l.2.2c0 .1-.3.1-.3.2-.3.1-.9.1-.8.5.1.1.8.6.8.8zm-24.5-.4c.3 0 .5-.1.8-.2.1-.1.3-.1.4-.1.1 0-.3.4-.3.4-.1.1-.1.3-.2.4 0 .2.1.4.2.5.2.1.3 0 .4 0 .1 0 .5-.1.5-.3 0-.1-.7 0-.8-.1-.1 0 0-.1 0-.2.1-.2.8-.7.8-.9.1-.4-.6-.5-.8-.5-.1 0-.4-.1-.3-.2l.2-.2c-.1 0-.8.2-.9.2l-.1.1c.1.1 0 .2 0 .3 0 .1.3.1.2.2h-.2c-.1 0 0-.2-.1-.2s-.2.1-.3.2v.3c.1.3.3.3.5.3zM5.8 19s-.3 0-.3.1c-.1.1.2.1.3-.1zm28.6 0c.1.2.3.1.3.1 0-.1-.3-.1-.3-.1zm.6.2c-.1 0-.2.1-.2.2s0 .2.1.3c.1.1.2.1.3.1-.1-.3 0-.6-.2-.6zm3.1-.9c-1.3-.4-2.7-.7-4-1.1l-1.2-.3c-.6-.1-1.3-.3-1.9-.4-.1 0-.1 0-.2-.1 0-.1-.1-.1-.2-.2-.2-.1-.4-.1-.6-.2-.1 0-.3-.1-.4-.2-.2 0-.3 0-.5-.2.2.1.5.2.6.1.1-.1.2-.2.1-.3 0-.1-.1-.1-.2-.1-.3-.1-.6-.3-.9-.4l-1.8-.9c-.3-.1-.6-.3-.9-.4-.2-.1-.5 0-.7.1-.2.1-.2.4-.4.4V14c-.1-.1-.3.2-.4.3-.4.2-1 .9-1.2 1.2-.2.2-.2.5-.3.7h.2c.1 0 .1.1.1.1.3.4 1 .1 1.3.3H22.8c0 .1-.3.6-.3.6l-.2.2c-.2.2-.3.4-.5.5-.1 0-.2.1-.2.1.6 0 .7-.6 1-.7-.1.1-.2.2-.3.4-.2.5-.4.3-.6.5v.1c.7 0 .8-.4 1-.4.2 0 .9.3 1.1.4.1 0 .2.1.3.1h.1c.1 0 .1.2.3.1.1-.1.1-.2.1-.3 0-.1-.1-.2-.1-.3 0-.1.1 0 .2-.1 0-.1 0-.2-.1-.2-.1-.1-.3-.3-.3-.5h.1l.8.1s.1.3.2.3c0 0-.1.3-.1.4-.1.2-.2.3-.2.5s.2.4.3.6c.1.2.3.1.5.2.1 0 .2.1.2.1.2.1.5.2.7.3.1 0 .3 0 .4-.1.1-.1-.1-.1-.1-.2s.1-.1.2 0c.1 0 .8.1.9 0v-.1c-.1-.1-.4-.1-.5-.1-.2-.1-.4-.1-.6-.1-.2 0-.2.1-.3.2-.2.1-.6-.1-.7-.3-.1-.2.1-.4.2-.6.1-.1.2-.1.3-.2.1 0 0-.1 0-.2.1-.1.5.1.6 0 .2 0 0-.3.2-.3.1 0 .2.1.3.2.1 0 .2 0 .3.1v.2c0 .1.2.1.3.1h.4c.1 0 .3.1.4.1h.4c.1.1 0 .1.1.4-.1 0-.5-.1-.6 0 .4.4 1.3.6 1.8.7h1c.2 0 .2-.2.4-.2s.3.2.4.3c.1.1.2.1.3.2.2.1.3-.1.5 0s.3.6.5.5c.1 0 .1-.1.1-.1.1-.1 0-.3-.1-.4.1-.1.2.1.2-.1l-.1-.1c-.3-.1-.3-.4-.7-.5-.2 0-.4-.1-.6-.1-.1 0-.2 0-.2-.1h.4c-.6-.1-1.1-.2-1.7-.3l-.1-.2c0-.1.2.1.3-.1 0-.1-.1-.2 0-.3.3 0 .5.1.8.1-1.4-.3-2.8-.6-4.3-1-.3-.1-.6-.1-.9-.2 1.2.2 2.5.5 3.7.6-.7-.1-1.4-.3-2.1-.4-1-.2-2.1-.3-3.1-.5l-2.1-.3c0 .1.1.1.2.1-.1 0-.5 0-.5-.1.1-.1.2-.2.4-.2.3 0 .7.1 1 .1 1.9.2 3.8.5 5.6.8 2 .3 3.9.7 5.9 1.2.3.1 2.4.6 2.5.6.5-.2-.2-.4-.4-.4zM24 17.9h-.2c-.1 0-.1-.1-.1-.2v-.1c.1 0 .2 0 .2.1.1.1.1.2.1.2zm6.7.8c.2 0 .4.1.6.1l.1.1h-.1l-.8-.2-.1-.1c.1.1.2.1.3.1zm-4.7-.9c0-.1 0-.1 0 0 .1-.1.2 0 .2 0l-.2.4c-.1.2 0 .4 0 .6h-.1c-.1-.1-.3-.3-.2-.5l.3-.5zm-1.6-2.4s-.1 0-.1-.1l.1.1 2.4.3.1.1s-1.7-.3-2.5-.4zm2.8-.4c-.4-.1-.9-.2-1.3-.3 0 0-.1 0-.1-.1.2 0 .9.2 1 .2h.2c.1 0 .2.1.2.2zm-14.6 3.6c.1 0 .1-.1.2-.1.1.1.1.3.2.3h.2c.1 0 .1-.1.1-.1 0-.1-.1-.2-.1-.3-.1-.2-.3-.1-.4-.1h-.4s-.1 0-.1.1v.2c.2-.1.3 0 .3 0zm5.5-.6c-.2-.1-.3-.3-.5-.5l-.2-.2s-.3-.5-.3-.6H15.3c.4-.1 1.1.1 1.3-.3 0 0 0-.1.1-.1s.1.1.2 0c-.1-.2-.1-.5-.3-.7-.3-.3-.9-1-1.2-1.2-.2-.1-.4-.4-.4-.3v.1c-.2 0-.2-.3-.4-.4-.2-.1-.5-.2-.7-.1-.3.1-.6.2-.9.4l-1.8.9c-.3.1-.6.3-.9.4-.1 0-.2 0-.2.1s0 .3.1.3c.2.1.5 0 .6-.1-.1.2-.3.2-.5.2-.1 0-.3.1-.4.2-.2.1-.4.1-.6.2-.1 0-.2 0-.2.2 0 .1-.1.1-.2.1-.7.1-1.3.3-1.9.4-.2 0-.6.1-1 .2-1.3.3-2.7.7-4 1.1-.1 0-.8.2-.9.3.1 0 2.2-.5 2.5-.6 1.9-.5 3.9-.8 5.9-1.2 1.9-.3 3.8-.6 5.6-.8.3 0 .7-.1 1-.1.2 0 .2.1.4.2 0 .1-.4.1-.5.1.1 0 .1-.1.2-.1l-2.1.3c-1 .2-2.1.3-3.1.5-.7.1-1.4.3-2.1.4 1.3-.1 2.5-.4 3.7-.6-.3.1-.6.1-.9.2-1.4.3-2.8.6-4.3 1 .3 0 .5-.1.8-.1.1.1 0 .2 0 .3.1.2.2 0 .3.1 0 0 0 .2-.1.2-.6.1-1.1.2-1.7.3h.4c0 .1-.1.1-.2.1-.2 0-.4.1-.6.1-.4.1-.4.4-.7.5 0 0-.1 0-.1.1s.2-.1.2.1c0 .1-.1.2-.1.4 0 .1.1.1.1.1.3.1.4-.4.5-.5.1-.1.3.1.5 0 .1-.1.2-.1.3-.2.3-.2.4-.4.6-.4.1 0 .2.2.4.2h1c.5-.1 1.4-.3 1.8-.7 0-.1-.5 0-.6 0 .1-.2 0-.3.1-.4h.4c.1 0 .3-.1.4-.1h.4c.1 0 .2 0 .3-.1 0-.1-.1-.1 0-.2s.2-.1.3-.1c.1 0 .2-.1.3-.2.1 0 0 .3.2.3.1 0 .5-.1.6 0v.2c.1.1.2.1.3.2.1.1.3.4.2.6-.1.2-.5.4-.7.3-.1-.1-.1-.2-.3-.2-.2.1-.4.1-.6.1-.2 0-.4.1-.5.1 0 0-.1 0 0 .1s.8 0 .9 0h.2c.1.1-.1.1-.1.2.1.1.3.2.4.1.3-.1.5-.2.7-.3.1 0 .2-.1.2-.1.2-.1.4 0 .5-.2.1-.2.3-.4.3-.6 0-.2-.1-.3-.2-.5 0-.1-.1-.3-.1-.4 0 0 .1-.3.2-.3l.8-.1h.1c0 .2-.2.3-.3.5l-.1.2c0 .1.2 0 .2.1s-.2.2-.1.3c0 .1 0 .3.1.3.2.1.2-.1.3-.1h.1c.1 0 .2 0 .3-.1.2-.1.9-.4 1.1-.4.2 0 .3.4 1 .4V18c-.2-.2-.4-.1-.6-.5-.1-.1-.2-.3-.3-.4.4.1.5.8 1 .7.1.3 0 .3-.1.2zm-5.2-3.1c0-.1.1-.1.2-.1h.2c.2-.1.9-.2 1-.2l-.1.1c-.4.1-.8.2-1.3.2zm2.9.5c-.8.1-2.5.4-2.5.4l.1-.1 2.4-.3.1-.1c0 .1-.1.1-.1.1zm-6.1 3.3l-.8.2h-.1s0-.1.1-.1c.2-.1.4-.1.6-.1h.2zm4.5.2c0-.1-.1-.1 0 0 0-.2.1-.5 0-.7l-.2-.4c0-.1.1-.1.1-.1s.1 0 .1.1l.2.5c0 .2-.1.4-.2.6zm2.2-1h-.2v-.2c.1-.1.2-.1.2-.1v.1c.1.1.1.2 0 .2z"/><path class="rst2" d="M24 14.6c.1 0 .1-.1.1-.1-.1-.2-.2-.4-.3-.5.2.2.2.4.2.6z"/><path class="rst1" d="M15.8 21.1l-.4-.5-2.6 1.8.2.3 1.1-.8.2.2-.9.7-.2.2.2.3c0-.1.1-.1.1-.2l.9-.6c.1-.1.2-.2.2-.3h.1c.1 0 .1 0 .2-.1l.8-.6c.2 0 .2-.2.1-.4zm-.3.2l-.9.6-.2-.3.9-.6.2.3zM16.8 22.2c0-.1 0-.2-.1-.2l-.5-.4-2.1 2.4.5.4c.1.1.4.1.5 0l.6-.7c.1-.1.1-.2.1-.3.1 0 .2 0 .2-.1l.6-.7c.2-.2.2-.3.2-.4zm-1.3 1.1l-.7.8-.2-.2.7-.8.2.2zm.2-.3l-.2-.2.7-.8.2.2-.7.8z"/></svg></svg>